<svg xmlns="http://www.w3.org/2000/svg" id="déplacé-maison" viewBox="0 0 499 89">
  <defs/>
  <path fill="#1D1D1B" d="M16.9 16.65C22.57 18.435 27.085 33.345 27.085 50.355C27.085 67.155 22.57 82.065 16.9 83.85V16.65ZM0.94 13.5L5.14 17.07V83.43L0.94 87H16.9C30.97 87 38.845 70.515 38.845 50.775C38.845 31.035 30.97 13.5 16.9 13.5H0.94ZM42.0089 17.07V83.43L37.8089 87H65.4239V71.67L60.6989 82.17H53.7689V51.825H56.2889L60.5939 61.485V37.125L56.1839 46.995H53.7689V18.33H60.6989L65.4239 28.83V13.5H37.8089L42.0089 17.07ZM44.2139 8.66999H60.6989V0.584999L44.2139 8.66999ZM101.907 40.695C101.907 25.68 92.6665 13.5 81.7465 13.5H64.5265L69.5665 17.07V83.43L65.3665 87H86.4715L81.3265 83.43V67.785C92.1415 67.785 101.907 55.71 101.907 40.695ZM81.3265 64.635V16.65C86.3665 16.65 90.0415 27.36 90.0415 40.695C90.0415 53.925 86.3665 64.635 81.3265 64.635ZM116.125 17.07L120.745 13.5H100.165L104.365 17.07V83.43L100.165 87H127.78V71.67L123.055 82.17H116.125V17.07ZM144.24 33.345L149.385 66.315H139.41L144.24 33.345ZM141.195 13.5L142.245 17.07L132.06 83.43L128.07 87H140.775L136.785 83.43L138.675 71.145H150.12L152.01 83.43L147.6 87H168.18L163.875 83.43L152.955 13.5H141.195ZM206.003 12.45C204.953 14.13 203.168 15.495 200.963 15.495C197.708 15.495 194.978 12.45 189.938 12.45C175.343 12.45 163.688 28.515 163.688 50.67C163.688 73.245 173.873 88.05 188.153 88.05C198.653 88.05 206.108 79.335 207.893 65.79L207.158 65.58C204.008 77.655 198.653 81.435 192.563 81.435C183.323 81.435 177.023 69.465 177.023 48.99C177.023 29.46 181.328 14.865 190.988 14.865C197.813 14.865 203.483 25.68 206.528 37.86H206.843L206.003 12.45ZM210.817 17.07V83.43L206.617 87H234.232V71.67L229.507 82.17H222.577V51.825H225.097L229.402 61.485V37.125L224.992 46.995H222.577V18.33H229.507L234.232 28.83V13.5H206.617L210.817 17.07ZM213.022 8.66999H229.507V0.584999L213.022 8.66999ZM263.673 33.03L280.368 87.42L294.228 35.025V83.43L289.923 87H310.398L305.988 83.43V16.86L310.608 13.5H294.858L283.518 54.765L270.183 13.5H254.643L258.843 16.86V83.43L254.853 87H267.663L263.673 83.43V33.03ZM321.005 33.345L326.15 66.315H316.175L321.005 33.345ZM317.96 13.5L319.01 17.07L308.825 83.43L304.835 87H317.54L313.55 83.43L315.44 71.145H326.885L328.775 83.43L324.365 87H344.945L340.64 83.43L329.72 13.5H317.96ZM359.038 83.43V17.07L363.343 13.5H342.973L347.278 17.07V83.43L342.973 87H363.343L359.038 83.43ZM381.713 57.705C388.958 63.27 393.368 66.21 393.368 72.72C393.368 78.81 389.588 82.275 384.968 82.275C376.883 82.275 368.588 71.67 363.548 60.645V87.315L367.958 83.43C372.893 86.265 378.143 87.315 382.763 87.315C392.423 87.315 401.558 80.385 401.558 67.365C401.558 54.24 394.628 48.78 387.068 42.69C379.823 36.915 371.843 32.19 371.843 25.89C371.843 20.43 375.308 17.07 380.138 17.07C385.913 17.07 389.588 19.8 398.618 37.125V13.185L394.313 15.81C391.268 14.655 387.068 13.185 382.658 13.185C371.213 13.185 363.548 21.06 363.548 32.925C363.548 45.105 375.728 53.295 381.713 57.705ZM453.67 50.25C453.67 28.2 442.12 12.45 427.84 12.45C413.455 12.45 402.01 28.2 402.01 50.25C402.01 72.3 413.455 88.05 427.84 88.05C442.12 88.05 453.67 72.3 453.67 50.25ZM440.02 50.25C440.02 70.935 436.87 85.74 427.84 85.74C418.705 85.74 415.66 70.935 415.66 50.25C415.66 29.565 418.705 14.76 427.84 14.76C436.87 14.76 440.02 29.565 440.02 50.25ZM487.904 18.96V52.665L466.799 13.5H451.469L458.609 24.84V81.54L452.519 87H469.529L463.439 81.54V31.56L492.734 87.315V18.96L498.824 13.5H481.814L487.904 18.96Z"/>
</svg>
