<svg xmlns="http://www.w3.org/2000/svg" id="loftgarten" viewBox="0 0 367 77">
  <defs/>
  <path fill="#1D1D1B" d="M16.9 5.07L21.52 1.49999H0.94L5.14 5.07V71.43L0.94 75H28.555V59.67L23.83 70.17H16.9V5.07ZM77.5646 38.25C77.5646 16.2 66.0146 0.449996 51.7346 0.449996C37.3496 0.449996 25.9046 16.2 25.9046 38.25C25.9046 60.3 37.3496 76.05 51.7346 76.05C66.0146 76.05 77.5646 60.3 77.5646 38.25ZM63.9146 38.25C63.9146 58.935 60.7646 73.74 51.7346 73.74C42.5996 73.74 39.5546 58.935 39.5546 38.25C39.5546 17.565 42.5996 2.76 51.7346 2.76C60.7646 2.76 63.9146 17.565 63.9146 38.25ZM76.8337 1.49999L81.0337 5.07V71.43L76.7287 75H97.3087L92.7937 71.43V39.825H95.3137L99.6187 49.485V25.125L95.1037 34.995H92.7937V6.33H99.6187L104.449 16.83V1.49999H76.8337ZM106.699 16.83L111.424 6.33H118.144V71.43L114.259 75H133.894L129.904 71.43V6.33H136.624L141.349 16.83V1.49999H106.699V16.83ZM166.676 2.865C174.131 2.865 180.326 13.68 183.581 25.86H183.896L182.951 0.449996C181.901 2.13 180.116 3.49499 177.806 3.49499C174.551 3.49499 171.086 0.449996 165.731 0.449996C151.976 0.449996 139.481 15.885 139.481 39.3C139.481 60.615 149.351 76.05 162.791 76.05C170.141 76.05 175.916 71.745 177.806 65.235L185.891 76.05H186.101V52.845C186.101 45.915 186.521 42.975 189.776 40.665V40.455H169.511V40.665C173.921 43.185 175.076 46.125 175.076 52.95V58.095C175.076 67.44 170.771 72.69 165.416 72.69C156.281 72.69 152.606 58.935 152.606 39.195C152.606 17.145 157.541 2.865 166.676 2.865ZM201.924 21.345L207.069 54.315H197.094L201.924 21.345ZM198.879 1.49999L199.929 5.07L189.744 71.43L185.754 75H198.459L194.469 71.43L196.359 59.145H207.804L209.694 71.43L205.284 75H225.864L221.559 71.43L210.639 1.49999H198.879ZM239.279 55.68C249.359 54.525 257.864 42.87 257.864 28.695C257.864 13.575 248.519 1.49999 237.704 1.49999H221.534L225.944 4.86V71.43L222.059 75H241.589L237.704 71.43V59.25C247.049 77.625 257.234 75.315 257.234 75.315V58.305C250.724 62.61 244.214 59.88 239.279 55.68ZM237.704 4.65C242.324 4.65 245.999 15.36 245.999 28.695C245.999 41.925 242.324 52.635 237.704 52.635V4.65ZM256.123 16.83L260.848 6.33H267.568V71.43L263.683 75H283.318L279.328 71.43V6.33H286.048L290.773 16.83V1.49999H256.123V16.83ZM294.575 5.07V71.43L290.375 75H317.99V59.67L313.265 70.17H306.335V39.825H308.855L313.16 49.485V25.125L308.75 34.995H306.335V6.33H313.265L317.99 16.83V1.49999H290.375L294.575 5.07ZM355.313 6.96V40.665L334.208 1.49999H318.878L326.018 12.84V69.54L319.928 75H336.938L330.848 69.54V19.56L360.143 75.315V6.96L366.233 1.49999H349.223L355.313 6.96Z"/>
</svg>
