<svg xmlns="http://www.w3.org/2000/svg" id="chiara-luzzana" viewBox="0 0 487 77">
  <defs/>
  <path fill="#1D1D1B" d="M42.835 0.449996C41.785 2.13 40 3.49499 37.795 3.49499C34.54 3.49499 31.81 0.449996 26.77 0.449996C12.175 0.449996 0.52 16.515 0.52 38.67C0.52 61.245 10.705 76.05 24.985 76.05C35.485 76.05 42.94 67.335 44.725 53.79L43.99 53.58C40.84 65.655 35.485 69.435 29.395 69.435C20.155 69.435 13.855 57.465 13.855 36.99C13.855 17.46 18.16 2.865 27.82 2.865C34.645 2.865 40.315 13.68 43.36 25.86H43.675L42.835 0.449996ZM60.4586 71.43V39.825H68.7536V71.43L64.7636 74.79L60.4586 71.43ZM68.7536 5.07V34.995H60.4586V5.07L64.6586 1.60499L68.7536 5.07ZM80.5136 5.07L84.7136 1.49999H44.4986L48.6986 5.07V71.43L44.4986 75H84.9236L80.5136 71.43V5.07ZM100.533 71.43V5.07L104.838 1.49999H84.4683L88.7733 5.07V71.43L84.4683 75H104.838L100.533 71.43ZM120.163 21.345L125.308 54.315H115.333L120.163 21.345ZM117.118 1.49999L118.168 5.07L107.983 71.43L103.993 75H116.698L112.708 71.43L114.598 59.145H126.043L127.933 71.43L123.523 75H144.103L139.798 71.43L128.878 1.49999H117.118ZM158.569 55.68C168.649 54.525 177.154 42.87 177.154 28.695C177.154 13.575 167.809 1.49999 156.994 1.49999H140.824L145.234 4.86V71.43L141.349 75H160.879L156.994 71.43V59.25C166.339 77.625 176.524 75.315 176.524 75.315V58.305C170.014 62.61 163.504 59.88 158.569 55.68ZM156.994 4.65C161.614 4.65 165.289 15.36 165.289 28.695C165.289 41.925 161.614 52.635 156.994 52.635V4.65ZM192.002 21.345L197.147 54.315H187.172L192.002 21.345ZM188.957 1.49999L190.007 5.07L179.822 71.43L175.832 75H188.537L184.547 71.43L186.437 59.145H197.882L199.772 71.43L195.362 75H215.942L211.637 71.43L200.717 1.49999H188.957ZM243.368 5.07L247.988 1.49999H227.408L231.608 5.07V71.43L227.408 75H255.023V59.67L250.298 70.17H243.368V5.07ZM277.362 1.49999L283.242 6.96V60.195C283.242 64.92 279.987 67.335 276.207 67.335C272.322 67.335 269.172 64.185 269.172 60.3V5.07L273.162 1.49999H253.422L257.412 5.07V60.615C257.412 68.805 264.237 75.315 272.742 75.315C281.457 75.315 288.072 68.805 288.072 60.51V6.96L293.952 1.49999H277.362ZM332.162 1.49999H295.097V16.83L299.822 6.33H317.882L292.472 75H332.162V59.67L327.437 70.17H306.647L332.162 1.49999ZM371.311 1.49999H334.246V16.83L338.971 6.33H357.031L331.621 75H371.311V59.67L366.586 70.17H345.796L371.311 1.49999ZM385.576 21.345L390.721 54.315H380.746L385.576 21.345ZM382.531 1.49999L383.581 5.07L373.396 71.43L369.406 75H382.111L378.121 71.43L380.011 59.145H391.456L393.346 71.43L388.936 75H409.516L405.211 71.43L394.291 1.49999H382.531ZM441.306 6.96V40.665L420.201 1.49999H404.871L412.011 12.84V69.54L405.921 75H422.931L416.841 69.54V19.56L446.136 75.315V6.96L452.226 1.49999H435.216L441.306 6.96ZM462.439 21.345L467.584 54.315H457.609L462.439 21.345ZM459.394 1.49999L460.444 5.07L450.259 71.43L446.269 75H458.974L454.984 71.43L456.874 59.145H468.319L470.209 71.43L465.799 75H486.379L482.074 71.43L471.154 1.49999H459.394Z"/>
</svg>
