<svg xmlns="http://www.w3.org/2000/svg" id="edoardo-smerilli" viewBox="0 0 550 77">
  <defs/>
  <path fill="#1D1D1B" d="M5.14 5.07V71.43L0.94 75H28.555V59.67L23.83 70.17H16.9V39.825H19.42L23.725 49.485V25.125L19.315 34.995H16.9V6.33H23.83L28.555 16.83V1.49999H0.94L5.14 5.07ZM44.6676 4.65C50.3376 6.43499 54.8526 21.345 54.8526 38.355C54.8526 55.155 50.3376 70.065 44.6676 71.85V4.65ZM28.7076 1.49999L32.9076 5.07V71.43L28.7076 75H44.6676C58.7376 75 66.6126 58.515 66.6126 38.775C66.6126 19.035 58.7376 1.49999 44.6676 1.49999H28.7076ZM121.017 38.25C121.017 16.2 109.467 0.449996 95.1865 0.449996C80.8015 0.449996 69.3565 16.2 69.3565 38.25C69.3565 60.3 80.8015 76.05 95.1865 76.05C109.467 76.05 121.017 60.3 121.017 38.25ZM107.367 38.25C107.367 58.935 104.217 73.74 95.1865 73.74C86.0515 73.74 83.0065 58.935 83.0065 38.25C83.0065 17.565 86.0515 2.76 95.1865 2.76C104.217 2.76 107.367 17.565 107.367 38.25ZM132.571 21.345L137.716 54.315H127.741L132.571 21.345ZM129.526 1.49999L130.576 5.07L120.391 71.43L116.401 75H129.106L125.116 71.43L127.006 59.145H138.451L140.341 71.43L135.931 75H156.511L152.206 71.43L141.286 1.49999H129.526ZM170.976 55.68C181.056 54.525 189.561 42.87 189.561 28.695C189.561 13.575 180.216 1.49999 169.401 1.49999H153.231L157.641 4.86V71.43L153.756 75H173.286L169.401 71.43V59.25C178.746 77.625 188.931 75.315 188.931 75.315V58.305C182.421 62.61 175.911 59.88 170.976 55.68ZM169.401 4.65C174.021 4.65 177.696 15.36 177.696 28.695C177.696 41.925 174.021 52.635 169.401 52.635V4.65ZM205.879 4.65C211.549 6.43499 216.064 21.345 216.064 38.355C216.064 55.155 211.549 70.065 205.879 71.85V4.65ZM189.919 1.49999L194.119 5.07V71.43L189.919 75H205.879C219.949 75 227.824 58.515 227.824 38.775C227.824 19.035 219.949 1.49999 205.879 1.49999H189.919ZM281.178 38.25C281.178 16.2 269.628 0.449996 255.348 0.449996C240.963 0.449996 229.518 16.2 229.518 38.25C229.518 60.3 240.963 76.05 255.348 76.05C269.628 76.05 281.178 60.3 281.178 38.25ZM267.528 38.25C267.528 58.935 264.378 73.74 255.348 73.74C246.213 73.74 243.168 58.935 243.168 38.25C243.168 17.565 246.213 2.76 255.348 2.76C264.378 2.76 267.528 17.565 267.528 38.25ZM318.369 45.705C325.614 51.27 330.024 54.21 330.024 60.72C330.024 66.81 326.244 70.275 321.624 70.275C313.539 70.275 305.244 59.67 300.204 48.645V75.315L304.614 71.43C309.549 74.265 314.799 75.315 319.419 75.315C329.079 75.315 338.214 68.385 338.214 55.365C338.214 42.24 331.284 36.78 323.724 30.69C316.479 24.915 308.499 20.19 308.499 13.89C308.499 8.43 311.964 5.07 316.794 5.07C322.569 5.07 326.244 7.8 335.274 25.125V1.185L330.969 3.81C327.924 2.655 323.724 1.185 319.314 1.185C307.869 1.185 300.204 9.06 300.204 20.925C300.204 33.105 312.384 41.295 318.369 45.705ZM345.7 21.03L362.395 75.42L376.255 23.025V71.43L371.95 75H392.425L388.015 71.43V4.86L392.635 1.49999H376.885L365.545 42.765L352.21 1.49999H336.67L340.87 4.86V71.43L336.88 75H349.69L345.7 71.43V21.03ZM393.177 5.07V71.43L388.977 75H416.592V59.67L411.867 70.17H404.937V39.825H407.457L411.762 49.485V25.125L407.352 34.995H404.937V6.33H411.867L416.592 16.83V1.49999H388.977L393.177 5.07ZM434.489 55.68C444.569 54.525 453.074 42.87 453.074 28.695C453.074 13.575 443.729 1.49999 432.914 1.49999H416.744L421.154 4.86V71.43L417.269 75H436.799L432.914 71.43V59.25C442.259 77.625 452.444 75.315 452.444 75.315V58.305C445.934 62.61 439.424 59.88 434.489 55.68ZM432.914 4.65C437.534 4.65 441.209 15.36 441.209 28.695C441.209 41.925 437.534 52.635 432.914 52.635V4.65ZM470.626 71.43V5.07L474.931 1.49999H454.561L458.866 5.07V71.43L454.561 75H474.931L470.626 71.43ZM491.726 5.07L496.346 1.49999H475.766L479.966 5.07V71.43L475.766 75H503.381V59.67L498.656 70.17H491.726V5.07ZM518.16 5.07L522.78 1.49999H502.2L506.4 5.07V71.43L502.2 75H529.815V59.67L525.09 70.17H518.16V5.07ZM544.7 71.43V5.07L549.005 1.49999H528.635L532.94 5.07V71.43L528.635 75H549.005L544.7 71.43Z"/>
</svg>
