<svg width="1313" height="154" viewBox="0 0 1313 154" fill="none" xmlns="http://www.w3.org/2000/svg">
<path d="M9.84724 66.0286L12.9804 86.1068H6.90585L9.84724 66.0286ZM7.99289 53.9434L8.63232 56.1175L2.42984 96.5295L0 98.7035H7.73711L5.30728 96.5295L6.45825 89.0481H13.428L14.579 96.5295L11.8934 98.7035H24.4263L21.8046 96.5295L15.1545 53.9434H7.99289Z" fill="#1D1D1B"/>
<path d="M33.8749 86.938C40.0134 86.2346 45.1928 79.137 45.1928 70.5046C45.1928 61.2968 39.5018 53.9434 32.9157 53.9434H23.0685L25.7541 55.9896V96.5295L23.3882 98.7035H35.2816L32.9157 96.5295V89.1121C38.6066 100.302 44.8091 98.8954 44.8091 98.8954V88.5366C40.8446 91.1583 36.8802 89.4957 33.8749 86.938ZM32.9157 55.8617C35.7292 55.8617 37.9672 62.3839 37.9672 70.5046C37.9672 78.5615 35.7292 85.0837 32.9157 85.0837V55.8617Z" fill="#1D1D1B"/>
<path d="M45.4111 63.2791L48.2885 56.8848H52.3809V96.5295L50.015 98.7035H61.9723L59.5425 96.5295V56.8848H63.6349L66.5123 63.2791V53.9434H45.4111V63.2791Z" fill="#1D1D1B"/>
<path d="M84.8115 55.8617C88.2644 56.9487 91.014 66.0286 91.014 76.3874C91.014 86.6183 88.2644 95.6982 84.8115 96.7852V55.8617ZM75.0922 53.9434L77.6499 56.1175V96.5295L75.0922 98.7035H84.8115C93.3799 98.7035 98.1756 88.6645 98.1756 76.6432C98.1756 64.6219 93.3799 53.9434 84.8115 53.9434H75.0922Z" fill="#1D1D1B"/>
<path d="M107.92 96.5295V56.1175L110.542 53.9434H98.1367L100.758 56.1175V96.5295L98.1367 98.7035H110.542L107.92 96.5295Z" fill="#1D1D1B"/>
<path d="M122.496 86.938C128.635 86.2346 133.814 79.137 133.814 70.5046C133.814 61.2968 128.123 53.9434 121.537 53.9434H111.69L114.375 55.9896V96.5295L112.009 98.7035H123.903L121.537 96.5295V89.1121C127.228 100.302 133.43 98.8954 133.43 98.8954V88.5366C129.466 91.1583 125.501 89.4957 122.496 86.938ZM121.537 55.8617C124.35 55.8617 126.588 62.3839 126.588 70.5046C126.588 78.5615 124.35 85.0837 121.537 85.0837V55.8617Z" fill="#1D1D1B"/>
<path d="M137.229 56.1175V96.5295L134.672 98.7035H151.489V89.3678L148.611 95.7622H144.391V77.2826H145.926L148.547 83.1654V68.3306L145.862 74.3412H144.391V56.8848H148.611L151.489 63.2791V53.9434H134.672L137.229 56.1175Z" fill="#1D1D1B"/>
<path d="M177.734 53.304C177.095 54.327 176.008 55.1583 174.665 55.1583C172.683 55.1583 171.02 53.304 167.951 53.304C159.063 53.304 151.965 63.0872 151.965 76.5792C151.965 90.327 158.168 99.343 166.864 99.343C173.258 99.343 177.798 94.0357 178.885 85.787L178.438 85.6592C176.519 93.0126 173.258 95.3146 169.55 95.3146C163.923 95.3146 160.086 88.025 160.086 75.5561C160.086 63.6627 162.708 54.7746 168.59 54.7746C172.747 54.7746 176.2 61.3608 178.054 68.7782H178.246L177.734 53.304Z" fill="#1D1D1B"/>
<path d="M178.747 63.2791L181.625 56.8848H185.717V96.5295L183.351 98.7035H195.309L192.879 96.5295V56.8848H196.971L199.849 63.2791V53.9434H178.747V63.2791Z" fill="#1D1D1B"/>
<path d="M210.279 96.5295V56.1175L212.901 53.9434H200.496L203.117 56.1175V96.5295L200.496 98.7035H212.901L210.279 96.5295Z" fill="#1D1D1B"/>
<path d="M245.253 76.3235C245.253 62.8954 238.219 53.304 229.523 53.304C220.763 53.304 213.793 62.8954 213.793 76.3235C213.793 89.7515 220.763 99.343 229.523 99.343C238.219 99.343 245.253 89.7515 245.253 76.3235ZM236.94 76.3235C236.94 88.9202 235.022 97.9362 229.523 97.9362C223.96 97.9362 222.105 88.9202 222.105 76.3235C222.105 63.7267 223.96 54.7107 229.523 54.7107C235.022 54.7107 236.94 63.7267 236.94 76.3235Z" fill="#1D1D1B"/>
<path d="M267.38 57.2684V77.7942L254.527 53.9434H245.191L249.539 60.8492V95.3785L245.831 98.7035H256.189L252.481 95.3785V64.9416L270.321 98.8954V57.2684L274.03 53.9434H263.671L267.38 57.2684Z" fill="#1D1D1B"/>
<path d="M373.81 55.859C377.263 56.946 380.013 66.0259 380.013 76.3847C380.013 86.6156 377.263 95.6955 373.81 96.7826V55.859ZM364.091 53.9407L366.649 56.1148V96.5268L364.091 98.7009H373.81C382.379 98.7009 387.174 88.6618 387.174 76.6405C387.174 64.6192 382.379 53.9407 373.81 53.9407H364.091Z" fill="#1D1D1B"/>
<path d="M389.693 56.1148V96.5268L387.135 98.7009H403.952V89.3652L401.075 95.7595H396.855V77.2799H398.389L401.011 83.1627V68.3279L398.325 74.3385H396.855V56.8821H401.075L403.952 63.2764V53.9407H387.135L389.693 56.1148Z" fill="#1D1D1B"/>
<path d="M421.821 57.2657L417.601 88.9815L413.125 56.1148L415.811 53.9407H403.278L405.9 56.1148L411.654 98.7009H419.264L424.763 57.2657L428.663 53.9407H417.921L421.821 57.2657Z" fill="#1D1D1B"/>
<path d="M430.162 56.1148V96.5268L427.604 98.7009H444.421V89.3652L441.544 95.7595H437.324V77.2799H438.858L441.48 83.1627V68.3279L438.794 74.3385H437.324V56.8821H441.544L444.421 63.2764V53.9407H427.604L430.162 56.1148Z" fill="#1D1D1B"/>
<path d="M454.873 56.1148L457.687 53.9407H445.154L447.711 56.1148V96.5268L445.154 98.7009H461.971V89.3652L459.093 95.7595H454.873V56.1148Z" fill="#1D1D1B"/>
<path d="M493.095 76.3208C493.095 62.8927 486.062 53.3013 477.365 53.3013C468.605 53.3013 461.635 62.8927 461.635 76.3208C461.635 89.7488 468.605 99.3403 477.365 99.3403C486.062 99.3403 493.095 89.7488 493.095 76.3208ZM484.783 76.3208C484.783 88.9176 482.865 97.9335 477.365 97.9335C471.802 97.9335 469.948 88.9176 469.948 76.3208C469.948 63.724 471.802 54.708 477.365 54.708C482.865 54.708 484.783 63.724 484.783 76.3208Z" fill="#1D1D1B"/>
<path d="M516.629 70.502C516.629 61.3581 511.002 53.9407 504.352 53.9407H493.865L496.935 56.1148V96.5268L494.377 98.7009H507.229L504.096 96.5268V86.9993C510.682 86.9993 516.629 79.6458 516.629 70.502ZM504.096 85.081V55.859C507.165 55.859 509.403 62.3812 509.403 70.502C509.403 78.5588 507.165 85.081 504.096 85.081Z" fill="#1D1D1B"/>
<path d="M521.515 65.8341L531.682 98.9566L540.123 67.049V96.5268L537.501 98.7009H549.97L547.284 96.5268V55.9869L550.098 53.9407H540.506L533.6 79.0703L525.48 53.9407H516.016L518.574 55.9869V96.5268L516.144 98.7009H523.945L521.515 96.5268V65.8341Z" fill="#1D1D1B"/>
<path d="M551.067 56.1148V96.5268L548.509 98.7009H565.326V89.3652L562.449 95.7595H558.229V77.2799H559.763L562.385 83.1627V68.3279L559.699 74.3385H558.229V56.8821H562.449L565.326 63.2764V53.9407H548.509L551.067 56.1148Z" fill="#1D1D1B"/>
<path d="M586.978 57.2657V77.7915L574.126 53.9407H564.79L569.138 60.8466V95.3758L565.43 98.7009H575.788L572.08 95.3758V64.9389L589.92 98.8927V57.2657L593.628 53.9407H583.27L586.978 57.2657Z" fill="#1D1D1B"/>
<path d="M593.209 63.2764L596.087 56.8821H600.179V96.5268L597.813 98.7009H609.771L607.341 96.5268V56.8821H611.433L614.311 63.2764V53.9407H593.209V63.2764Z" fill="#1D1D1B"/>
<path d="M335.206 75.941C335.206 87.3135 325.986 96.5328 314.614 96.5328C303.241 96.5328 294.022 87.3135 294.022 75.941C294.022 64.5684 303.241 55.3491 314.614 55.3491C325.986 55.3491 335.206 64.5684 335.206 75.941Z" fill="#1D1D1B"/>
<path d="M677.68 75.941C677.68 87.3135 668.461 96.5328 657.088 96.5328C645.716 96.5328 636.497 87.3135 636.497 75.941C636.497 64.5684 645.716 55.3491 657.088 55.3491C668.461 55.3491 677.68 64.5684 677.68 75.941Z" fill="#1D1D1B"/>
<path d="M716.349 96.5268V56.1148L718.97 53.9407H706.565L709.187 56.1148V96.5268L706.565 98.7009H718.97L716.349 96.5268Z" fill="#1D1D1B"/>
<path d="M729.838 56.1148L732.651 53.9407H720.118L722.676 56.1148V96.5268L720.118 98.7009H736.935V89.3652L734.058 95.7595H729.838V56.1148Z" fill="#1D1D1B"/>
<path d="M746.575 56.1148L749.389 53.9407H736.856L739.414 56.1148V96.5268L736.856 98.7009H753.673V89.3652L750.796 95.7595H746.575V56.1148Z" fill="#1D1D1B"/>
<path d="M767.917 53.9407L771.498 57.2657V89.6849C771.498 92.5623 769.515 94.033 767.213 94.033C764.848 94.033 762.929 92.1147 762.929 89.7488V56.1148L765.359 53.9407H753.338L755.768 56.1148V89.9407C755.768 94.9282 759.924 98.8927 765.103 98.8927C770.411 98.8927 774.439 94.9282 774.439 89.8767V57.2657L778.02 53.9407H767.917Z" fill="#1D1D1B"/>
<path d="M788.628 80.8607C793.04 84.2497 795.726 86.0401 795.726 90.0046C795.726 93.7133 793.424 95.8234 790.61 95.8234C785.686 95.8234 780.635 89.3652 777.566 82.6511V98.8927L780.251 96.5268C783.257 98.2533 786.454 98.8927 789.267 98.8927C795.15 98.8927 800.713 94.6724 800.713 86.7435C800.713 78.7506 796.493 75.4256 791.889 71.7169C787.477 68.2 782.617 65.3226 782.617 61.486C782.617 58.1609 784.727 56.1148 787.669 56.1148C791.186 56.1148 793.424 57.7773 798.923 68.3279V53.7489L796.301 55.3474C794.447 54.6441 791.889 53.7489 789.203 53.7489C782.234 53.7489 777.566 58.5446 777.566 65.7702C777.566 73.1876 784.983 78.1751 788.628 80.8607Z" fill="#1D1D1B"/>
<path d="M800.604 63.2764L803.482 56.8821H807.574V96.5268L805.208 98.7009H817.165L814.736 96.5268V56.8821H818.828L821.705 63.2764V53.9407H800.604V63.2764Z" fill="#1D1D1B"/>
<path d="M832.909 86.9353C839.047 86.232 844.227 79.1343 844.227 70.502C844.227 61.2942 838.536 53.9407 831.95 53.9407H822.103L824.788 55.9869V96.5268L822.422 98.7009H834.316L831.95 96.5268V89.1094C837.641 100.299 843.843 98.8927 843.843 98.8927V88.5339C839.879 91.1556 835.914 89.493 832.909 86.9353ZM831.95 55.859C834.763 55.859 837.001 62.3812 837.001 70.502C837.001 78.5588 834.763 85.081 831.95 85.081V55.859Z" fill="#1D1D1B"/>
<path d="M853.909 66.0259L857.042 86.1041H850.967L853.909 66.0259ZM852.054 53.9407L852.694 56.1148L846.491 96.5268L844.062 98.7009H851.799L849.369 96.5268L850.52 89.0454H857.49L858.641 96.5268L855.955 98.7009H868.488L865.866 96.5268L859.216 53.9407H852.054Z" fill="#1D1D1B"/>
<path d="M865.054 63.2764L867.932 56.8821H872.024V96.5268L869.658 98.7009H881.616L879.186 96.5268V56.8821H883.278L886.156 63.2764V53.9407H865.054V63.2764Z" fill="#1D1D1B"/>
<path d="M896.586 96.5268V56.1148L899.207 53.9407H886.802L889.424 56.1148V96.5268L886.802 98.7009H899.207L896.586 96.5268Z" fill="#1D1D1B"/>
<path d="M931.56 76.3208C931.56 62.8927 924.526 53.3013 915.83 53.3013C907.069 53.3013 900.1 62.8927 900.1 76.3208C900.1 89.7488 907.069 99.3403 915.83 99.3403C924.526 99.3403 931.56 89.7488 931.56 76.3208ZM923.247 76.3208C923.247 88.9176 921.329 97.9335 915.83 97.9335C910.267 97.9335 908.412 88.9176 908.412 76.3208C908.412 63.724 910.267 54.708 915.83 54.708C921.329 54.708 923.247 63.724 923.247 76.3208Z" fill="#1D1D1B"/>
<path d="M953.686 57.2657V77.7915L940.834 53.9407H931.498L935.846 60.8466V95.3758L932.138 98.7009H942.496L938.788 95.3758V64.9389L956.628 98.8927V57.2657L960.337 53.9407H949.978L953.686 57.2657Z" fill="#1D1D1B"/>
<path d="M1065.53 53.9407L1069.11 57.2657V89.6849C1069.11 92.5623 1067.13 94.033 1064.82 94.033C1062.46 94.033 1060.54 92.1147 1060.54 89.7488V56.1148L1062.97 53.9407H1050.95L1053.38 56.1148V89.9407C1053.38 94.9282 1057.53 98.8927 1062.71 98.8927C1068.02 98.8927 1072.05 94.9282 1072.05 89.8767V57.2657L1075.63 53.9407H1065.53Z" fill="#1D1D1B"/>
<path d="M1099.09 96.5268L1090.59 73.7631L1097.3 57.2657L1101.33 53.9407H1090.52L1094.23 57.2657L1089.18 69.8625L1084.06 56.1148L1086.69 53.9407H1074.15L1076.78 56.1148L1085.28 78.9424L1078.63 95.3758L1074.6 98.7009H1085.28L1081.7 95.3758L1086.75 82.9709L1091.8 96.5268L1089.31 98.7009H1101.65L1099.09 96.5268Z" fill="#1D1D1B"/>
<path d="M1110.95 53.9407L1103.02 98.7009H1107.37L1115.36 53.9407H1110.95Z" fill="#1D1D1B"/>
<path d="M1133.16 53.9407L1136.74 57.2657V89.6849C1136.74 92.5623 1134.76 94.033 1132.46 94.033C1130.09 94.033 1128.17 92.1147 1128.17 89.7488V56.1148L1130.6 53.9407H1118.58L1121.01 56.1148V89.9407C1121.01 94.9282 1125.17 98.8927 1130.35 98.8927C1135.66 98.8927 1139.68 94.9282 1139.68 89.8767V57.2657L1143.27 53.9407H1133.16Z" fill="#1D1D1B"/>
<path d="M1152.29 96.5268V56.1148L1154.91 53.9407H1142.51L1145.13 56.1148V96.5268L1142.51 98.7009H1154.91L1152.29 96.5268Z" fill="#1D1D1B"/>
<path d="M1173.96 55.859C1177.42 56.946 1180.17 66.0259 1180.17 76.3847C1180.17 86.6156 1177.42 95.6955 1173.96 96.7826V55.859ZM1164.24 53.9407L1166.8 56.1148V96.5268L1164.24 98.7009H1173.96C1182.53 98.7009 1187.33 88.6618 1187.33 76.6405C1187.33 64.6192 1182.53 53.9407 1173.96 53.9407H1164.24Z" fill="#1D1D1B"/>
<path d="M1189.85 56.1148V96.5268L1187.29 98.7009H1204.11V89.3652L1201.23 95.7595H1197.01V77.2799H1198.54L1201.16 83.1627V68.3279L1198.48 74.3385H1197.01V56.8821H1201.23L1204.11 63.2764V53.9407H1187.29L1189.85 56.1148Z" fill="#1D1D1B"/>
<path d="M1217.08 80.8607C1221.49 84.2497 1224.18 86.0401 1224.18 90.0046C1224.18 93.7133 1221.87 95.8234 1219.06 95.8234C1214.14 95.8234 1209.08 89.3652 1206.02 82.6511V98.8927L1208.7 96.5268C1211.71 98.2533 1214.9 98.8927 1217.72 98.8927C1223.6 98.8927 1229.16 94.6724 1229.16 86.7435C1229.16 78.7506 1224.94 75.4256 1220.34 71.7169C1215.93 68.2 1211.07 65.3226 1211.07 61.486C1211.07 58.1609 1213.18 56.1148 1216.12 56.1148C1219.64 56.1148 1221.87 57.7773 1227.37 68.3279V53.7489L1224.75 55.3474C1222.9 54.6441 1220.34 53.7489 1217.65 53.7489C1210.68 53.7489 1206.02 58.5446 1206.02 65.7702C1206.02 73.1876 1213.43 78.1751 1217.08 80.8607Z" fill="#1D1D1B"/>
<path d="M1240.16 96.5268V56.1148L1242.78 53.9407H1230.38L1233 56.1148V96.5268L1230.38 98.7009H1242.78L1240.16 96.5268Z" fill="#1D1D1B"/>
<path d="M1260.24 54.772C1264.78 54.772 1268.55 61.3581 1270.53 68.7755H1270.73L1270.15 53.3013C1269.51 54.3244 1268.42 55.1556 1267.02 55.1556C1265.03 55.1556 1262.92 53.3013 1259.66 53.3013C1251.29 53.3013 1243.68 62.7009 1243.68 76.9602C1243.68 89.9407 1249.69 99.3403 1257.87 99.3403C1262.35 99.3403 1265.87 96.7186 1267.02 92.7542L1271.94 99.3403H1272.07V85.2089C1272.07 80.9886 1272.32 79.1982 1274.31 77.7915V77.6636H1261.96V77.7915C1264.65 79.3261 1265.35 81.1165 1265.35 85.2728V88.406C1265.35 94.097 1262.73 97.2941 1259.47 97.2941C1253.91 97.2941 1251.67 88.9176 1251.67 76.8963C1251.67 63.4682 1254.68 54.772 1260.24 54.772Z" fill="#1D1D1B"/>
<path d="M1295.52 57.2657V77.7915L1282.66 53.9407H1273.33L1277.68 60.8466V95.3758L1273.97 98.7009H1284.33L1280.62 95.3758V64.9389L1298.46 98.8927V57.2657L1302.17 53.9407H1291.81L1295.52 57.2657Z" fill="#1D1D1B"/>
<path d="M1022.32 75.941C1022.32 87.3135 1013.11 96.5328 1001.73 96.5328C990.36 96.5328 981.141 87.3135 981.141 75.941C981.141 64.5684 990.36 55.3491 1001.73 55.3491C1013.11 55.3491 1022.32 64.5684 1022.32 75.941Z" fill="#1D1D1B"/>
<path d="M3.2417 1H1313" stroke="black" stroke-width="1.01783"/>
<path d="M3.2417 152.657H1313" stroke="black" stroke-width="1.01783"/>
</svg>
