<?xml version="1.0" encoding="utf-8"?>
<!-- Generator: Adobe Illustrator 25.0.1, SVG Export Plug-In . SVG Version: 6.00 Build 0)  -->
<svg version="1.1" id="déplacé-maison" xmlns="http://www.w3.org/2000/svg" xmlns:xlink="http://www.w3.org/1999/xlink" x="0px"
	 y="0px" viewBox="0 0 245 169" style="enable-background:new 0 0 245 169;" xml:space="preserve">
<path style="fill:#1D1D1B;" d="M20.9,16.6c5.7,1.8,10.2,16.7,10.2,33.7c0,16.8-4.5,31.7-10.2,33.5V16.6z M4.9,13.5l4.2,3.6v66.4
	L4.9,87h16C35,87,42.8,70.5,42.8,50.8S35,13.5,20.9,13.5H4.9z M46,17.1v66.4L41.8,87h27.6V71.7l-4.7,10.5h-6.9V51.8h2.5l4.3,9.7
	V37.1L60.2,47h-2.4V18.3h6.9l4.7,10.5V13.5H41.8L46,17.1z M48.2,8.7h16.5V0.6L48.2,8.7z M105.9,40.7c0-15-9.2-27.2-20.2-27.2H68.5
	l5,3.6v66.4L69.4,87h21.1l-5.1-3.6V67.8C96.1,67.8,105.9,55.7,105.9,40.7z M85.3,64.6v-48c5,0,8.7,10.7,8.7,24
	C94,53.9,90.4,64.6,85.3,64.6z M120.1,17.1l4.6-3.6h-20.6l4.2,3.6v66.4l-4.2,3.6h27.6V71.7l-4.7,10.5h-6.9V17.1z M148.2,33.3l5.1,33
	h-10L148.2,33.3z M145.2,13.5l1,3.6l-10.2,66.4l-4,3.6h12.7l-4-3.6l1.9-12.3h11.4l1.9,12.3l-4.4,3.6h20.6l-4.3-3.6L157,13.5H145.2z
	 M210,12.4c-1.1,1.7-2.8,3-5,3c-3.3,0-6-3-11-3c-14.6,0-26.2,16.1-26.2,38.2c0,22.6,10.2,37.4,24.5,37.4c10.5,0,18-8.7,19.7-22.3
	l-0.7-0.2c-3.2,12.1-8.5,15.9-14.6,15.9c-9.2,0-15.5-12-15.5-32.4c0-19.5,4.3-34.1,14-34.1c6.8,0,12.5,10.8,15.5,23h0.3L210,12.4z
	 M214.8,17.1v66.4l-4.2,3.6h27.6V71.7l-4.7,10.5h-6.9V51.8h2.5l4.3,9.7V37.1L229,47h-2.4V18.3h6.9l4.7,10.5V13.5h-27.6L214.8,17.1z
	 M217,8.7h16.5V0.6L217,8.7z M9.6,113l16.7,54.4L40.2,115v48.4l-4.3,3.6h20.5l-4.4-3.6V96.9l4.6-3.4H40.8l-11.3,41.3L16.1,93.5H0.6
	l4.2,3.4v66.6l-4,3.6h12.8l-4-3.6V113z M66.9,113.3l5.1,33h-10L66.9,113.3z M63.9,93.5l1,3.6l-10.2,66.4l-4,3.6h12.7l-4-3.6
	l1.9-12.3h11.4l1.9,12.3l-4.4,3.6h20.6l-4.3-3.6L75.7,93.5H63.9z M105,163.4V97.1l4.3-3.6H88.9l4.3,3.6v66.4l-4.3,3.6h20.4
	L105,163.4z M127.6,137.7c7.2,5.6,11.7,8.5,11.7,15c0,6.1-3.8,9.6-8.4,9.6c-8.1,0-16.4-10.6-21.4-21.6v26.7l4.4-3.9
	c4.9,2.8,10.2,3.9,14.8,3.9c9.7,0,18.8-6.9,18.8-19.9c0-13.1-6.9-18.6-14.5-24.7c-7.2-5.8-15.2-10.5-15.2-16.8
	c0-5.5,3.5-8.8,8.3-8.8c5.8,0,9.4,2.7,18.5,20.1V93.2l-4.3,2.6c-3-1.2-7.2-2.6-11.7-2.6c-11.4,0-19.1,7.9-19.1,19.7
	C109.5,125.1,121.7,133.3,127.6,137.7z M199.6,130.2c0-22.1-11.6-37.8-25.8-37.8c-14.4,0-25.8,15.8-25.8,37.8s11.4,37.8,25.8,37.8
	C188.1,168.1,199.6,152.3,199.6,130.2z M186,130.2c0,20.7-3.1,35.5-12.2,35.5c-9.1,0-12.2-14.8-12.2-35.5s3-35.5,12.2-35.5
	C182.8,94.8,186,109.6,186,130.2z M233.8,99v33.7l-21.1-39.2h-15.3l7.1,11.3v56.7l-6.1,5.5h17l-6.1-5.5v-50l29.3,55.8V99l6.1-5.5
	h-17L233.8,99z"/>
</svg>
