<?xml version="1.0" encoding="utf-8"?>
<!-- Generator: Adobe Illustrator 25.0.1, SVG Export Plug-In . SVG Version: 6.00 Build 0)  -->
<svg version="1.1" id="chiara-luzzana" xmlns="http://www.w3.org/2000/svg" xmlns:xlink="http://www.w3.org/1999/xlink" x="0px"
	 y="0px" viewBox="0 0 260 156" style="enable-background:new 0 0 260 156;" xml:space="preserve">
<path style="fill:#1D1D1B;" d="M62.8,0.4c-1,1.7-2.8,3-5,3c-3.3,0-6-3-11-3c-14.6,0-26.2,16.1-26.2,38.2c0,22.6,9.2,37.4,23.5,37.4
	c10.5,0,19-8.7,20.7-22.3L64,53.6c-3.2,12.1-8.5,15.9-14.6,15.9c-9.2,0-15.5-12-15.5-32.4c0-19.5,4.3-34.1,14-34.1
	c6.8,0,12.5,10.8,15.5,23h0.3L62.8,0.4z M80.5,71.4V39.8h8.3v31.6l-4,3.4L80.5,71.4z M88.8,5.1V35h-8.3V5.1l4.2-3.5L88.8,5.1z
	 M100.5,5.1l4.2-3.6H64.5l4.2,3.6v66.4L63.5,75h40.4l-3.4-3.6V5.1z M120.5,71.4V5.1l4.3-3.6h-20.4l4.3,3.6v66.4l-5.3,3.6h20.4
	L120.5,71.4z M140.2,21.3l5.1,33h-10L140.2,21.3z M137.1,1.5l1.1,3.6L128,71.4l-5,3.6h12.7l-3-3.6l1.9-12.3H146l1.9,12.3l-5.4,3.6
	h20.6l-3.3-3.6L148.9,1.5H137.1z M178.6,55.7c10.1-1.2,18.6-12.8,18.6-27c0-15.1-9.3-27.2-20.2-27.2h-16.2l4.4,3.4v66.6l-4.9,3.6
	h19.5l-2.9-3.6V59.2c9.3,18.4,18.5,16.1,18.5,16.1l1-17C190,62.6,183.5,59.9,178.6,55.7z M177,4.7c4.6,0,8.3,10.7,8.3,24
	c0,13.2-3.7,23.9-8.3,23.9V4.7z M212,21.3l5.1,33h-10L212,21.3z M209,1.5l1.1,3.6l-10.2,66.4l-5,3.6h12.7l-3-3.6l1.9-12.3h11.4
	l1.9,12.3l-5.4,3.6h20.6l-3.3-3.6L220.7,1.5H209z M16.9,85.1l4.6-3.6H0.9l4.2,3.6v66.4L0.9,155h27.6v-15.3l-4.7,10.5h-6.9V85.1z
	 M50.9,81.5l5.9,5.5v53.2c0,4.7-3.3,7.1-7,7.1c-3.9,0-7-3.2-7-7V85.1l4-3.6H27l4,3.6v55.5c0,8.2,6.8,14.7,15.3,14.7
	c8.7,0,15.3-6.5,15.3-14.8V87l5.9-5.5H50.9z M105.7,81.5H68.6v15.3l4.7-10.5h18.1L66,155h39.7v-15.3l-4.7,10.5H80.2L105.7,81.5z
	 M144.8,81.5h-37.1v15.3l4.7-10.5h18.1L105.2,155h39.7v-15.3l-4.7,10.5h-20.8L144.8,81.5z M159.1,101.3l5.1,33h-10L159.1,101.3z
	 M156.1,81.5l1.1,3.6l-10.2,66.4l-4,3.6h12.7l-4-3.6l1.9-12.3H165l1.9,12.3l-4.4,3.6H183l-4.3-3.6l-10.9-69.9H156.1z M214.8,87v33.7
	l-21.1-39.2h-15.3l7.1,11.3v56.7l-6.1,5.5h17l-6.1-5.5v-50l29.3,55.8V87l6.1-5.5h-17L214.8,87z M236,101.3l5.1,33h-10L236,101.3z
	 M232.9,81.5l1.1,3.6l-10.2,66.4l-4,3.6h12.7l-4-3.6l1.9-12.3h11.4l1.9,12.3l-4.4,3.6h20.6l-4.3-3.6l-10.9-69.9H232.9z"/>
</svg>
