<?xml version="1.0" encoding="utf-8"?>
<!-- Generator: Adobe Illustrator 25.0.1, SVG Export Plug-In . SVG Version: 6.00 Build 0)  -->
<svg version="1.1" id="loftgarten" xmlns="http://www.w3.org/2000/svg" xmlns:xlink="http://www.w3.org/1999/xlink" x="0px" y="0px"
	 viewBox="0 0 228 157" style="enable-background:new 0 0 228 157;" xml:space="preserve">
<path style="fill:#1D1D1B;" d="M58.9,5.1l4.6-3.6H42.9l4.2,3.6v66.4L42.9,75h27.6V59.7l-4.7,10.5h-6.9V5.1z M119.6,38.2
	c0-22-11.5-37.8-25.8-37.8c-14.4,0-25.8,15.8-25.8,37.8s11.4,37.8,25.8,37.8C108,76.1,119.6,60.3,119.6,38.2z M105.9,38.2
	c0,20.7-3.1,35.5-12.2,35.5c-9.1,0-12.2-14.8-12.2-35.5s3-35.5,12.2-35.5C102.8,2.8,105.9,17.6,105.9,38.2z M118.8,1.5l4.2,3.6v66.4
	l-4.3,3.6h20.6l-4.5-3.6V39.8h2.5l4.3,9.7V25.1l-4.5,9.9h-2.3V6.3h6.8l4.8,10.5V1.5H118.8z M148.7,16.8l4.7-10.5h6.7v65.1l-3.9,3.6
	h19.6l-4-3.6V6.3h6.7l4.7,10.5V1.5h-34.6V16.8z M27.7,82.9c7.5,0,13.7,10.8,16.9,23h0.3L44,80.4c-1.1,1.7-2.8,3-5.1,3
	c-3.3,0-6.7-3-12.1-3C13,80.4,0.5,95.9,0.5,119.3c0,21.3,9.9,36.8,23.3,36.8c7.4,0,13.1-4.3,15-10.8l8.1,10.8h0.2v-23.2
	c0-6.9,0.4-9.9,3.7-12.2v-0.2H30.5v0.2c4.4,2.5,5.6,5.5,5.6,12.3v5.1c0,9.3-4.3,14.6-9.7,14.6c-9.1,0-12.8-13.8-12.8-33.5
	C13.6,97.1,18.6,82.9,27.7,82.9z M63,101.3l5.1,33h-10L63,101.3z M59.9,81.5l1,3.6l-10.2,66.4l-4,3.6h12.7l-4-3.6l1.9-12.3h11.4
	l1.9,12.3l-4.4,3.6h20.6l-4.3-3.6L71.7,81.5H59.9z M100.3,135.7c10.1-1.2,18.6-12.8,18.6-27c0-15.1-9.3-27.2-20.2-27.2H82.6l4.4,3.4
	v66.6l-3.9,3.6h19.5l-3.9-3.6v-12.2c9.3,18.4,19.5,16.1,19.5,16.1v-17C111.8,142.6,105.3,139.9,100.3,135.7z M98.7,84.7
	c4.6,0,8.3,10.7,8.3,24c0,13.2-3.7,23.9-8.3,23.9V84.7z M117.2,96.8l4.7-10.5h6.7v65.1l-3.9,3.6h19.6l-4-3.6V86.3h6.7l4.7,10.5V81.5
	h-34.6V96.8z M155.6,85.1v66.4l-4.2,3.6H179v-15.3l-4.7,10.5h-6.9v-30.3h2.5l4.3,9.7v-24.4l-4.4,9.9h-2.4V86.3h6.9l4.7,10.5V81.5
	h-27.6L155.6,85.1z M216.4,87v33.7l-21.1-39.2h-15.3l7.1,11.3v56.7L181,155h17l-6.1-5.5v-50l29.3,55.8V87l6.1-5.5h-17L216.4,87z"/>
</svg>
