<?xml version="1.0" encoding="utf-8"?>
<!-- Generator: Adobe Illustrator 25.0.1, SVG Export Plug-In . SVG Version: 6.00 Build 0)  -->
<svg version="1.1" id="edoardo-smerilli" xmlns="http://www.w3.org/2000/svg" xmlns:xlink="http://www.w3.org/1999/xlink" x="0px"
	 y="0px" viewBox="0 0 282 156" style="enable-background:new 0 0 282 156;" xml:space="preserve">
<path style="fill:#1D1D1B;" d="M5.1,5.1v66.4L0.9,75h27.6V59.7l-4.7,10.5h-6.9V39.8h2.5l4.3,9.7V25.1L19.3,35h-2.4V6.3h6.9l4.7,10.5
	V1.5H0.9L5.1,5.1z M44.7,4.7c5.7,1.8,10.2,16.7,10.2,33.7c0,16.8-4.5,31.7-10.2,33.5V4.7z M28.7,1.5l4.2,3.6v66.4L28.7,75h16
	c14.1,0,21.9-16.5,21.9-36.2S58.7,1.5,44.7,1.5H28.7z M121,38.2c0-22-11.5-37.8-25.8-37.8c-14.4,0-25.8,15.8-25.8,37.8
	s11.4,37.8,25.8,37.8C109.5,76.1,121,60.3,121,38.2z M107.4,38.2c0,20.7-3.1,35.5-12.2,35.5C86.1,73.7,83,58.9,83,38.2
	s3-35.5,12.2-35.5C104.2,2.8,107.4,17.6,107.4,38.2z M132.6,21.3l5.1,33h-10L132.6,21.3z M129.5,1.5l1.1,3.6l-10.2,66.4l-4,3.6h12.7
	l-4-3.6l1.9-12.3h11.4l1.9,12.3l-4.4,3.6h20.6l-4.3-3.6L141.3,1.5H129.5z M171,55.7c10.1-1.2,18.6-12.8,18.6-27
	c0-15.1-9.3-27.2-20.2-27.2h-16.2l4.4,3.4v66.6l-3.9,3.6h19.5l-3.9-3.6V59.2c9.3,18.4,19.5,16.1,19.5,16.1v-17
	C182.4,62.6,175.9,59.9,171,55.7z M169.4,4.7c4.6,0,8.3,10.7,8.3,24c0,13.2-3.7,23.9-8.3,23.9V4.7z M205.9,4.7
	c5.7,1.8,10.2,16.7,10.2,33.7c0,16.8-4.5,31.7-10.2,33.5V4.7z M189.9,1.5l4.2,3.6v66.4l-4.2,3.6h16c14.1,0,21.9-16.5,21.9-36.2
	s-7.9-37.3-21.9-37.3H189.9z M281.2,38.2c0-22-11.6-37.8-25.8-37.8c-14.4,0-25.8,15.8-25.8,37.8s11.4,37.8,25.8,37.8
	C269.6,76.1,281.2,60.3,281.2,38.2z M267.5,38.2c0,20.7-3.2,35.5-12.2,35.5c-9.1,0-12.2-14.8-12.2-35.5s3-35.5,12.2-35.5
	C264.4,2.8,267.5,17.6,267.5,38.2z M32.5,125.7c7.2,5.6,11.7,8.5,11.7,15c0,6.1-3.8,9.6-8.4,9.6c-8.1,0-16.4-10.6-21.4-21.6v26.7
	l4.4-3.9c4.9,2.8,10.2,3.9,14.8,3.9c9.7,0,18.8-6.9,18.8-19.9c0-13.1-6.9-18.6-14.5-24.7c-7.2-5.8-15.2-10.5-15.2-16.8
	c0-5.5,3.5-8.8,8.3-8.8c5.8,0,9.4,2.7,18.5,20.1V81.2l-4.3,2.6c-3-1.2-7.2-2.6-11.7-2.6c-11.4,0-19.1,7.9-19.1,19.7
	C14.3,113.1,26.5,121.3,32.5,125.7z M59.8,101l16.7,54.4L90.4,103v48.4l-4.3,3.6h20.5l-4.4-3.6V84.9l4.6-3.4H91l-11.3,41.3
	L66.3,81.5H50.8l4.2,3.4v66.6l-4,3.6h12.8l-4-3.6V101z M107.3,85.1v66.4l-4.2,3.6h27.6v-15.3l-4.7,10.5H119v-30.3h2.5l4.3,9.7v-24.4
	l-4.4,9.9H119V86.3h6.9l4.7,10.5V81.5h-27.6L107.3,85.1z M148.6,135.7c10.1-1.2,18.6-12.8,18.6-27c0-15.1-9.3-27.2-20.2-27.2h-16.2
	l4.4,3.4v66.6l-3.9,3.6h19.5l-3.9-3.6v-12.2c9.3,18.4,19.5,16.1,19.5,16.1v-17C160,142.6,153.5,139.9,148.6,135.7z M147,84.7
	c4.6,0,8.3,10.7,8.3,24c0,13.2-3.7,23.9-8.3,23.9V84.7z M184.7,151.4V85.1l4.3-3.6h-20.4l4.3,3.6v66.4l-4.3,3.6H189L184.7,151.4z
	 M205.8,85.1l4.6-3.6h-20.6l4.2,3.6v66.4l-4.2,3.6h27.6v-15.3l-4.7,10.5h-6.9V85.1z M232.3,85.1l4.6-3.6h-20.6l4.2,3.6v66.4
	l-4.2,3.6h27.6v-15.3l-4.7,10.5h-6.9V85.1z M258.8,151.4V85.1l4.3-3.6h-20.4l4.3,3.6v66.4l-4.3,3.6h20.4L258.8,151.4z"/>
</svg>
