<svg xmlns="http://www.w3.org/2000/svg" id="hiring-chain" viewBox="0 0 514 77">
  <defs/>
  <path fill="#1D1D1B" d="M0.89 16.83L5.615 6.33H12.335V71.43L8.45 75H28.085L24.095 71.43V6.33H30.815L35.54 16.83V1.49999H0.89V16.83ZM50.0521 71.43V39.825H58.3471V71.43L54.3572 74.79L50.0521 71.43ZM58.3471 5.07V34.995H50.0521V5.07L54.2522 1.60499L58.3471 5.07ZM70.1072 5.07L74.3072 1.49999H34.0921L38.2921 5.07V71.43L34.0921 75H74.5172L70.1072 71.43V5.07ZM78.3398 5.07V71.43L74.1398 75H101.755V59.67L97.0298 70.17H90.0998V39.825H92.6198L96.9248 49.485V25.125L92.5148 34.995H90.0998V6.33H97.0298L101.755 16.83V1.49999H74.1398L78.3398 5.07ZM128.154 71.43V39.825H136.449V71.43L132.459 74.79L128.154 71.43ZM136.449 5.07V34.995H128.154V5.07L132.354 1.60499L136.449 5.07ZM148.209 5.07L152.409 1.49999H112.194L116.394 5.07V71.43L112.194 75H152.619L148.209 71.43V5.07ZM167.179 71.43V5.07L171.484 1.49999H151.114L155.419 5.07V71.43L151.114 75H171.484L167.179 71.43ZM189.014 55.68C199.094 54.525 207.599 42.87 207.599 28.695C207.599 13.575 198.254 1.49999 187.439 1.49999H171.269L175.679 4.86V71.43L171.794 75H191.324L187.439 71.43V59.25C196.784 77.625 206.969 75.315 206.969 75.315V58.305C200.459 62.61 193.949 59.88 189.014 55.68ZM187.439 4.65C192.059 4.65 195.734 15.36 195.734 28.695C195.734 41.925 192.059 52.635 187.439 52.635V4.65ZM224.1 71.43V5.07L228.405 1.49999H208.035L212.34 5.07V71.43L208.035 75H228.405L224.1 71.43ZM263.158 6.96V40.665L242.053 1.49999H226.723L233.863 12.84V69.54L227.773 75H244.783L238.693 69.54V19.56L267.988 75.315V6.96L274.078 1.49999H257.068L263.158 6.96ZM299.115 2.865C306.57 2.865 312.765 13.68 316.02 25.86H316.335L315.39 0.449996C314.34 2.13 312.555 3.49499 310.245 3.49499C306.99 3.49499 303.525 0.449996 298.17 0.449996C284.415 0.449996 271.92 15.885 271.92 39.3C271.92 60.615 281.79 76.05 295.23 76.05C302.58 76.05 308.355 71.745 310.245 65.235L318.33 76.05H318.54V52.845C318.54 45.915 318.96 42.975 322.215 40.665V40.455H301.95V40.665C306.36 43.185 307.515 46.125 307.515 52.95V58.095C307.515 67.44 303.21 72.69 297.855 72.69C288.72 72.69 285.045 58.935 285.045 39.195C285.045 17.145 289.98 2.865 299.115 2.865ZM370.438 0.449996C369.388 2.13 367.603 3.49499 365.398 3.49499C362.143 3.49499 359.413 0.449996 354.373 0.449996C339.778 0.449996 328.123 16.515 328.123 38.67C328.123 61.245 338.308 76.05 352.588 76.05C363.088 76.05 370.543 67.335 372.328 53.79L371.593 53.58C368.443 65.655 363.088 69.435 356.998 69.435C347.758 69.435 341.458 57.465 341.458 36.99C341.458 17.46 345.763 2.865 355.423 2.865C362.248 2.865 367.918 13.68 370.963 25.86H371.278L370.438 0.449996ZM387.012 71.43V39.825H395.307V71.43L391.317 74.79L387.012 71.43ZM395.307 5.07V34.995H387.012V5.07L391.212 1.60499L395.307 5.07ZM407.067 5.07L411.267 1.49999H371.052L375.252 5.07V71.43L371.052 75H411.477L407.067 71.43V5.07ZM425.59 21.345L430.735 54.315H420.76L425.59 21.345ZM422.545 1.49999L423.595 5.07L413.41 71.43L409.42 75H422.125L418.135 71.43L420.025 59.145H431.47L433.36 71.43L428.95 75H449.53L445.225 71.43L434.305 1.49999H422.545ZM463.623 71.43V5.07L467.928 1.49999H447.558L451.863 5.07V71.43L447.558 75H467.928L463.623 71.43ZM502.681 6.96V40.665L481.576 1.49999H466.246L473.386 12.84V69.54L467.296 75H484.306L478.216 69.54V19.56L507.511 75.315V6.96L513.601 1.49999H496.591L502.681 6.96Z"/>
</svg>
