<?xml version="1.0" encoding="utf-8"?>
<!-- Generator: Adobe Illustrator 25.0.1, SVG Export Plug-In . SVG Version: 6.00 Build 0)  -->
<svg version="1.1" id="hiring-chain" xmlns="http://www.w3.org/2000/svg" xmlns:xlink="http://www.w3.org/1999/xlink" x="0px"
	 y="0px" viewBox="0 0 323 161" style="enable-background:new 0 0 323 161;" xml:space="preserve">
<path style="fill:#1D1D1B;" d="M0.9,16.8L5.6,6.3h6.7v65.1L8.4,75h19.6l-4-3.6V6.3h6.7l4.7,10.5V1.5H0.9V16.8z M50.1,71.4V39.8h8.3
	v31.6l-4,3.4L50.1,71.4z M58.3,5.1V35h-8.3V5.1l4.2-3.5L58.3,5.1z M70.1,5.1l4.2-3.6H34.1l4.2,3.6v66.4L34.1,75h40.4l-4.4-3.6V5.1z
	 M78.3,5.1v66.4L74.1,75h27.6V59.7L97,70.2h-6.9V39.8h2.5l4.3,9.7V25.1L92.5,35h-2.4V6.3H97l4.7,10.5V1.5H74.1L78.3,5.1z
	 M128.2,71.4V39.8h8.3v31.6l-4,3.4L128.2,71.4z M136.4,5.1V35h-8.3V5.1l4.2-3.5L136.4,5.1z M148.2,5.1l4.2-3.6h-40.2l4.2,3.6v66.4
	l-4.2,3.6h40.4l-4.4-3.6V5.1z M167.2,71.4V5.1l4.3-3.6h-20.4l4.3,3.6v66.4l-4.3,3.6h20.4L167.2,71.4z M189,55.7
	c10.1-1.2,18.6-12.8,18.6-27c0-15.1-9.3-27.2-20.2-27.2h-16.2l4.4,3.4v66.6l-3.9,3.6h19.5l-3.9-3.6V59.2
	c9.3,18.4,19.5,16.1,19.5,16.1v-17C200.5,62.6,193.9,59.9,189,55.7z M187.4,4.7c4.6,0,8.3,10.7,8.3,24c0,13.2-3.7,23.9-8.3,23.9V4.7
	z M224.1,71.4V5.1l4.3-3.6H208l4.3,3.6v66.4L208,75h20.4L224.1,71.4z M263.2,7v33.7L242.1,1.5h-15.3l7.1,11.3v56.7l-6.1,5.5h17
	l-6.1-5.5v-50L268,75.3V7l6.1-5.5h-17L263.2,7z M299.1,2.9c7.5,0,13.7,10.8,16.9,23h0.3l-0.9-25.4c-1.1,1.7-2.8,3-5.1,3
	c-3.3,0-6.7-3-12.1-3c-13.8,0-26.2,15.4-26.2,38.9c0,21.3,9.9,36.8,23.3,36.8c7.3,0,13.1-4.3,15-10.8l8.1,10.8h0.2V52.8
	c0-6.9,0.4-9.9,3.7-12.2v-0.2H302v0.2c4.4,2.5,5.6,5.5,5.6,12.3v5.1c0,9.3-4.3,14.6-9.7,14.6c-9.1,0-12.8-13.8-12.8-33.5
	C285,17.1,290,2.9,299.1,2.9z M101.8,83.4c-1,1.7-2.8,3-5,3c-3.3,0-6-3-11-3c-14.6,0-26.3,16.1-26.3,38.2
	c0,22.6,10.2,37.4,24.5,37.4c10.5,0,18-8.7,19.7-22.3l-0.7-0.2c-3.2,12.1-8.5,15.9-14.6,15.9c-9.2,0-15.5-12-15.5-32.4
	c0-19.5,4.3-34.1,14-34.1c6.8,0,12.5,10.8,15.5,23h0.3L101.8,83.4z M118.4,154.4v-31.6h8.3v31.6l-4,3.4L118.4,154.4z M126.7,88.1
	V118h-8.3V88.1l4.2-3.5L126.7,88.1z M138.5,88.1l4.2-3.6h-40.2l4.2,3.6v66.4l-4.2,3.6h40.4l-4.4-3.6V88.1z M157,104.3l5.1,33h-10
	L157,104.3z M153.9,84.5l1.1,3.6l-10.2,66.4l-4,3.6h12.7l-4-3.6l1.9-12.3h11.4l1.9,12.3l-4.4,3.6h20.6l-4.3-3.6l-10.9-69.9H153.9z
	 M195,154.4V88.1l4.3-3.6H179l4.3,3.6v66.4L179,158h20.4L195,154.4z M234.1,90v33.7L213,84.5h-15.3l7.1,11.3v56.7l-6.1,5.5h17
	l-6.1-5.5v-50l29.3,55.8V90l6.1-5.5h-17L234.1,90z"/>
</svg>
