<svg width="307" height="154" viewBox="0 0 307 154" fill="none" xmlns="http://www.w3.org/2000/svg">
<path d="M121.809 44.4037C128.881 49.836 133.186 52.7059 133.186 59.0606C133.186 65.0053 129.496 68.3877 124.986 68.3877C117.094 68.3877 108.997 58.0356 104.077 47.2736V73.3075L108.382 69.5152C113.199 72.2825 118.324 73.3075 122.834 73.3075C132.263 73.3075 141.181 66.5428 141.181 53.8333C141.181 41.0214 134.416 35.6916 127.036 29.7469C119.964 24.1096 112.174 19.4973 112.174 13.3476C112.174 8.0178 115.557 4.73794 120.271 4.73794C125.909 4.73794 129.496 7.40282 138.311 24.3146V0.945605L134.108 3.50799C131.136 2.38054 127.036 0.945605 122.731 0.945605C111.559 0.945605 104.077 8.63277 104.077 20.2148C104.077 32.1043 115.967 40.0989 121.809 44.4037ZM154.55 20.6248L159.572 52.8084H149.835L154.55 20.6248ZM151.577 1.25309L152.602 4.73794L142.66 69.5152L138.766 73H151.167L147.273 69.5152L149.118 57.5232H160.29L162.135 69.5152L157.83 73H177.919L173.717 69.5152L163.057 1.25309H151.577ZM191.698 4.73794L196.208 1.25309H176.119L180.219 4.73794V69.5152L176.119 73H203.075V58.0356L198.463 68.2852H191.698V4.73794ZM36.6831 106.799C36.6831 92.1426 27.6635 80.2531 17.004 80.2531H0.194706L5.11449 83.7379V148.515L1.01467 152H21.6163L16.594 148.515V133.243C27.151 133.243 36.6831 121.456 36.6831 106.799ZM16.594 130.168V83.328C21.5138 83.328 25.1011 93.7825 25.1011 106.799C25.1011 119.714 21.5138 130.168 16.594 130.168ZM47.2498 99.6248L52.2721 131.808H42.535L47.2498 99.6248ZM44.2774 80.2531L45.3024 83.7379L35.3603 148.515L31.4655 152H43.8674L39.9726 148.515L41.8175 136.523H52.9895L54.8345 148.515L50.5296 152H70.6188L66.4165 148.515L55.7569 80.2531H44.2774ZM84.7391 133.141C94.5787 132.013 102.881 120.636 102.881 106.799C102.881 92.0401 93.7588 80.2531 83.2017 80.2531H67.4174L71.7222 83.5329V148.515L67.9299 152H86.994L83.2017 148.515V136.626C92.3238 154.562 102.266 152.307 102.266 152.307V135.703C95.9112 139.906 89.5564 137.241 84.7391 133.141ZM83.2017 83.328C87.7115 83.328 91.2989 93.7825 91.2989 106.799C91.2989 119.714 87.7115 130.168 83.2017 130.168V83.328ZM117.375 99.6248L122.397 131.808H112.66L117.375 99.6248ZM114.403 80.2531L115.428 83.7379L105.486 148.515L101.591 152H113.993L110.098 148.515L111.943 136.523H123.115L124.96 148.515L120.655 152H140.744L136.542 148.515L125.882 80.2531H114.403ZM157.562 123.404C164.634 128.836 168.939 131.706 168.939 138.061C168.939 144.005 165.249 147.388 160.74 147.388C152.847 147.388 144.75 137.036 139.831 126.274V152.307L144.135 148.515C148.953 151.283 154.077 152.307 158.587 152.307C168.017 152.307 176.934 145.543 176.934 132.833C176.934 120.021 170.169 114.692 162.79 108.747C155.717 103.11 147.928 98.4973 147.928 92.3476C147.928 87.0178 151.31 83.7379 156.025 83.7379C161.662 83.7379 165.249 86.4028 174.064 103.315V79.9456L169.862 82.508C166.889 81.3805 162.79 79.9456 158.485 79.9456C147.313 79.9456 139.831 87.6328 139.831 99.2148C139.831 111.104 151.72 119.099 157.562 123.404ZM198.617 80.2531L204.357 85.5829V137.548C204.357 142.16 201.18 144.518 197.49 144.518C193.698 144.518 190.623 141.443 190.623 137.651V83.7379L194.518 80.2531H175.248L179.143 83.7379V137.958C179.143 145.953 185.805 152.307 194.108 152.307C202.615 152.307 209.072 145.953 209.072 137.856V85.5829L214.812 80.2531H198.617ZM254.57 79.2281C253.545 80.8681 251.802 82.2005 249.65 82.2005C246.472 82.2005 243.807 79.2281 238.888 79.2281C224.641 79.2281 213.264 94.91 213.264 116.537C213.264 138.573 223.206 153.025 237.145 153.025C247.395 153.025 254.672 144.518 256.414 131.296L255.697 131.091C252.622 142.878 247.395 146.568 241.45 146.568C232.43 146.568 226.281 134.883 226.281 114.897C226.281 95.8324 230.483 81.5855 239.913 81.5855C246.575 81.5855 252.11 92.1426 255.082 104.032H255.389L254.57 79.2281ZM306.211 116.127C306.211 94.6025 294.937 79.2281 280.997 79.2281C266.955 79.2281 255.783 94.6025 255.783 116.127C255.783 137.651 266.955 153.025 280.997 153.025C294.937 153.025 306.211 137.651 306.211 116.127ZM292.887 116.127C292.887 136.318 289.812 150.77 280.997 150.77C272.08 150.77 269.108 136.318 269.108 116.127C269.108 95.9349 272.08 81.483 280.997 81.483C289.812 81.483 292.887 95.9349 292.887 116.127Z" fill="#1D1D1B"/>
</svg>
