<svg width="417" height="75" viewBox="0 0 417 75" fill="none" xmlns="http://www.w3.org/2000/svg">
<path d="M17.9866 44.4037C25.0588 49.836 29.3637 52.7059 29.3637 59.0606C29.3637 65.0053 25.6738 68.3877 21.164 68.3877C13.2718 68.3877 5.17469 58.0356 0.254903 47.2736V73.3075L4.55972 69.5152C9.37701 72.2825 14.5018 73.3075 19.0116 73.3075C28.4412 73.3075 37.3583 66.5428 37.3583 53.8333C37.3583 41.0214 30.5936 35.6916 23.2139 29.7469C16.1417 24.1096 8.35205 19.4973 8.35205 13.3476C8.35205 8.0178 11.7344 4.73794 16.4492 4.73794C22.0865 4.73794 25.6738 7.40282 34.4884 24.3146V0.945605L30.2861 3.50799C27.3137 2.38054 23.2139 0.945605 18.9091 0.945605C7.73708 0.945605 0.254903 8.63277 0.254903 20.2148C0.254903 32.1043 12.1444 40.0989 17.9866 44.4037ZM50.7276 20.6248L55.7499 52.8084H46.0128L50.7276 20.6248ZM47.7552 1.25309L48.7802 4.73794L38.8381 69.5152L34.9433 73H47.3452L43.4504 69.5152L45.2953 57.5232H56.4673L58.3122 69.5152L54.0074 73H74.0966L69.8942 69.5152L59.2347 1.25309H47.7552ZM87.8758 4.73794L92.3856 1.25309H72.2965L76.3963 4.73794V69.5152L72.2965 73H99.2528V58.0356L94.6405 68.2852H87.8758V4.73794ZM146.68 27.7994C146.68 13.1426 137.661 1.25309 127.001 1.25309H110.192L115.112 4.73794V69.5152L111.012 73H131.613L126.591 69.5152V54.2433C137.148 54.2433 146.68 42.4563 146.68 27.7994ZM126.591 51.1684V4.32796C131.511 4.32796 135.098 14.7825 135.098 27.7994C135.098 40.7139 131.511 51.1684 126.591 51.1684ZM157.247 20.6248L162.269 52.8084H152.532L157.247 20.6248ZM154.275 1.25309L155.299 4.73794L145.357 69.5152L141.463 73H153.865L149.97 69.5152L151.815 57.5232H162.987L164.832 69.5152L160.527 73H180.616L176.414 69.5152L165.754 1.25309H154.275ZM194.736 54.1408C204.576 53.0134 212.878 41.6363 212.878 27.7994C212.878 13.0401 203.756 1.25309 193.199 1.25309H177.415L181.719 4.53295V69.5152L177.927 73H196.991L193.199 69.5152V57.6257C202.321 75.5624 212.263 73.3075 212.263 73.3075V56.7032C205.908 60.9055 199.554 58.2406 194.736 54.1408ZM193.199 4.32796C197.709 4.32796 201.296 14.7825 201.296 27.7994C201.296 40.7139 197.709 51.1684 193.199 51.1684V4.32796ZM227.372 20.6248L232.395 52.8084H222.658L227.372 20.6248ZM224.4 1.25309L225.425 4.73794L215.483 69.5152L211.588 73H223.99L220.095 69.5152L221.94 57.5232H233.112L234.957 69.5152L230.652 73H250.741L246.539 69.5152L235.879 1.25309H224.4ZM267.559 44.4037C274.632 49.836 278.936 52.7059 278.936 59.0606C278.936 65.0053 275.247 68.3877 270.737 68.3877C262.845 68.3877 254.747 58.0356 249.828 47.2736V73.3075L254.132 69.5152C258.95 72.2825 264.075 73.3075 268.584 73.3075C278.014 73.3075 286.931 66.5428 286.931 53.8333C286.931 41.0214 280.166 35.6916 272.787 29.7469C265.714 24.1096 257.925 19.4973 257.925 13.3476C257.925 8.0178 261.307 4.73794 266.022 4.73794C271.659 4.73794 275.247 7.40282 284.061 24.3146V0.945605L279.859 3.50799C276.886 2.38054 272.787 0.945605 268.482 0.945605C257.31 0.945605 249.828 8.63277 249.828 20.2148C249.828 32.1043 261.717 40.0989 267.559 44.4037ZM308.614 1.25309L314.354 6.58286V58.5481C314.354 63.1604 311.177 65.5178 307.487 65.5178C303.695 65.5178 300.62 62.443 300.62 58.6506V4.73794L304.515 1.25309H285.245L289.14 4.73794V58.9581C289.14 66.9528 295.803 73.3075 304.105 73.3075C312.612 73.3075 319.069 66.9528 319.069 58.8556V6.58286L324.809 1.25309H308.614ZM364.567 0.228132C363.542 1.86807 361.799 3.2005 359.647 3.2005C356.469 3.2005 353.805 0.228132 348.885 0.228132C334.638 0.228132 323.261 15.91 323.261 37.5365C323.261 59.5731 333.203 74.025 347.142 74.025C357.392 74.025 364.669 65.5178 366.412 52.2959L365.694 52.0909C362.619 63.8779 357.392 67.5677 351.447 67.5677C342.428 67.5677 336.278 55.8832 336.278 35.8966C336.278 16.8324 340.48 2.58553 349.91 2.58553C356.572 2.58553 362.107 13.1426 365.079 25.0321H365.387L364.567 0.228132ZM416.208 37.1265C416.208 15.6025 404.934 0.228132 390.994 0.228132C376.953 0.228132 365.781 15.6025 365.781 37.1265C365.781 58.6506 376.953 74.025 390.994 74.025C404.934 74.025 416.208 58.6506 416.208 37.1265ZM402.884 37.1265C402.884 57.3182 399.809 71.7701 390.994 71.7701C382.077 71.7701 379.105 57.3182 379.105 37.1265C379.105 16.9349 382.077 2.48304 390.994 2.48304C399.809 2.48304 402.884 16.9349 402.884 37.1265Z" fill="#1D1D1B"/>
</svg>
