<svg width="290" height="106" viewBox="0 0 290 106" fill="none" xmlns="http://www.w3.org/2000/svg">
<rect width="290" height="106" fill="#1D1D1B"/>
<path d="M12.1081 15.0833L16.4341 18.7667V87.2333L12 90.9167H33.1971L28.5467 87.2333V54.625H31.1423L35.5763 64.5917V39.4583L30.926 49.6417H28.5467V20.0667H35.5763L40.5512 30.9V15.0833H12.1081ZM52.804 35.5583L58.1033 69.575H47.8292L52.804 35.5583ZM49.6677 15.0833L50.7492 18.7667L40.2588 87.2333L36.1492 90.9167H49.2351L45.1255 87.2333L47.0722 74.5583H58.8603L60.807 87.2333L56.2648 90.9167H77.4618L73.0278 87.2333L61.7803 15.0833H49.6677ZM96.2891 60.6917C103.751 66.4333 108.294 69.4667 108.294 76.1833C108.294 82.4667 104.4 86.0417 99.6417 86.0417C91.3143 86.0417 82.7705 75.1 77.5794 63.725V91.2417L82.1216 87.2333C87.2046 90.1583 92.612 91.2417 97.3706 91.2417C107.32 91.2417 116.729 84.0917 116.729 70.6583C116.729 57.1167 109.591 51.4833 101.805 45.2C94.3424 39.2417 86.1231 34.3667 86.1231 27.8667C86.1231 22.2333 89.692 18.7667 94.6669 18.7667C100.615 18.7667 104.4 21.5833 113.701 39.4583V14.7583L109.267 17.4667C106.131 16.275 101.805 14.7583 97.2624 14.7583C85.4742 14.7583 77.5794 22.8833 77.5794 35.125C77.5794 47.6917 90.1246 56.1417 96.2891 60.6917ZM134.065 87.2333V54.625H142.609V87.2333L138.499 90.7L134.065 87.2333ZM142.609 18.7667V49.6417H134.065V18.7667L138.391 15.1917L142.609 18.7667ZM154.721 18.7667L159.047 15.0833H117.626L121.952 18.7667V87.2333L117.626 90.9167H159.264L154.721 87.2333V18.7667ZM177.585 87.2333V18.7667L182.019 15.0833H161.038L165.472 18.7667V87.2333L161.038 90.9167H182.019L177.585 87.2333ZM234.573 53C234.573 30.25 222.677 14 207.969 14C193.153 14 181.365 30.25 181.365 53C181.365 75.75 193.153 92 207.969 92C222.677 92 234.573 75.75 234.573 53ZM220.514 53C220.514 74.3417 217.27 89.6167 207.969 89.6167C198.56 89.6167 195.424 74.3417 195.424 53C195.424 31.6583 198.56 16.3833 207.969 16.3833C217.27 16.3833 220.514 31.6583 220.514 53ZM268.753 20.7167V55.4917L247.015 15.0833H231.225L238.579 26.7833V85.2833L232.307 90.9167H249.827L243.554 85.2833V33.7167L273.727 91.2417V20.7167L280 15.0833H262.48L268.753 20.7167Z" fill="#CDC6BE"/>
</svg>
