<svg width="405" height="110" viewBox="0 0 405 110" fill="none" xmlns="http://www.w3.org/2000/svg">
<rect width="405" height="109.831" fill="#1D1D1B"/>
<path d="M18.0868 21.7878V87.6699L13.917 91.2144H41.3332V75.9946L36.6422 86.4193H29.7621V56.2927H32.2639L36.538 65.883V41.6984L32.1597 51.4973H29.7621V23.0387H36.6422L41.3332 33.4631V18.2435H13.917L18.0868 21.7878ZM85.1631 17.201C84.1204 18.8689 82.3483 20.2241 80.1593 20.2241C76.9278 20.2241 74.2174 17.201 69.2136 17.201C54.7235 17.201 43.1526 33.1504 43.1526 55.146C43.1526 77.5583 53.2642 92.2567 67.4416 92.2567C77.8659 92.2567 85.2671 83.6045 87.0394 70.1571L86.3098 69.9484C83.1823 81.9368 77.8659 85.6896 71.8197 85.6896C62.6461 85.6896 56.3916 73.8056 56.3916 53.478C56.3916 34.0886 60.6657 19.5986 70.256 19.5986C77.0318 19.5986 82.661 30.3358 85.6841 42.4281H85.9967L85.1631 17.201ZM138.728 54.729C138.728 32.8376 127.261 17.201 113.084 17.201C98.8026 17.201 87.44 32.8376 87.44 54.729C87.44 76.6203 98.8026 92.2567 113.084 92.2567C127.261 92.2567 138.728 76.6203 138.728 54.729ZM125.176 54.729C125.176 75.2649 122.049 89.9633 113.084 89.9633C104.015 89.9633 100.992 75.2649 100.992 54.729C100.992 34.1928 104.015 19.4944 113.084 19.4944C122.049 19.4944 125.176 34.1928 125.176 54.729ZM148.635 37.6329L165.21 91.6314L178.97 39.6135V87.6699L174.697 91.2144H195.024L190.646 87.6699V21.5793L195.232 18.2435H179.596L168.338 59.2115L155.099 18.2435H139.671L143.84 21.5793V87.6699L139.879 91.2144H152.597L148.635 87.6699V37.6329ZM204.247 37.6329L220.822 91.6314L234.582 39.6135V87.6699L230.308 91.2144H250.636L246.258 87.6699V21.5793L250.844 18.2435H235.208L223.949 59.2115L210.71 18.2435H195.282L199.452 21.5793V87.6699L195.491 91.2144H208.209L204.247 87.6699V37.6329Z" fill="#CDC6BE"/>
<path d="M253.467 21.7878V87.6699L249.297 91.2144H276.713V75.9946L272.022 86.4193H265.142V56.2927H267.644L271.918 65.883V41.6984L267.54 51.4973H265.142V23.0387H272.022L276.713 33.4631V18.2435H249.297L253.467 21.7878ZM296.567 72.0335C306.574 70.8868 315.018 59.3158 315.018 45.2427C315.018 30.2315 305.74 18.2435 295.003 18.2435H278.949L283.328 21.5793V87.6699L279.471 91.2144H298.86L295.003 87.6699V75.5776C304.281 93.8205 314.392 91.5271 314.392 91.5271V74.6396C307.93 78.9137 301.466 76.2033 296.567 72.0335ZM295.003 21.3708C299.59 21.3708 303.238 32.0037 303.238 45.2427C303.238 58.3775 299.59 69.0104 295.003 69.0104V21.3708ZM359.054 17.201C358.01 18.8689 356.238 20.2241 354.048 20.2241C350.817 20.2241 348.107 17.201 343.103 17.201C328.613 17.201 317.042 33.1504 317.042 55.146C317.042 77.5583 327.153 92.2567 341.331 92.2567C351.755 92.2567 359.157 83.6045 360.928 70.1571L360.2 69.9484C357.073 81.9368 351.755 85.6896 345.709 85.6896C336.536 85.6896 330.281 73.8056 330.281 53.478C330.281 34.0886 334.555 19.5986 344.145 19.5986C350.921 19.5986 356.551 30.3358 359.572 42.4281H359.888L359.054 17.201ZM365.915 21.7878V87.6699L361.748 91.2144H389.161V75.9946L384.473 86.4193H377.591V56.2927H380.093L384.366 65.883V41.6984L379.99 51.4973H377.591V23.0387H384.473L389.161 33.4631V18.2435H361.748L365.915 21.7878Z" fill="#CDC6BE"/>
</svg>
