<svg width="452" height="106" viewBox="0 0 452 106" fill="none" xmlns="http://www.w3.org/2000/svg">
<rect width="452" height="106" fill="#1D1D1B"/>
<path d="M28.0848 34.7292L33.2027 67.4375H23.2803L28.0848 34.7292ZM25.0558 15.0417L26.1003 18.5833L15.969 84.4167L12 87.9583H24.6381L20.6691 84.4167L22.5491 72.2292H33.9338L35.8139 84.4167L31.4271 87.9583H51.8987L47.6164 84.4167L36.7539 15.0417H25.0558ZM67.3322 68.7917C77.3591 67.6458 85.8193 56.0833 85.8193 42.0208C85.8193 27.0208 76.5235 15.0417 65.7655 15.0417H49.6807L54.0675 18.375V84.4167L50.2029 87.9583H69.63L65.7655 84.4167V72.3333C75.0613 90.5625 85.1926 88.2708 85.1926 88.2708V71.3958C78.7169 75.6667 72.2412 72.9583 67.3322 68.7917ZM65.7655 18.1667C70.3612 18.1667 74.0168 28.7917 74.0168 42.0208C74.0168 55.1458 70.3612 65.7708 65.7655 65.7708V18.1667ZM128.895 14C127.85 15.6667 126.075 17.0208 123.881 17.0208C120.644 17.0208 117.928 14 112.914 14C98.3964 14 86.8028 29.9375 86.8028 51.9167C86.8028 74.3125 96.9341 89 111.139 89C121.584 89 128.999 80.3542 130.775 66.9167L130.044 66.7083C126.91 78.6875 121.584 82.4375 115.526 82.4375C106.334 82.4375 100.067 70.5625 100.067 50.25C100.067 30.875 104.35 16.3958 113.959 16.3958C120.748 16.3958 126.388 27.125 129.417 39.2083H129.73L128.895 14ZM145.381 84.4167V53.0625H153.632V84.4167L149.663 87.75L145.381 84.4167ZM153.632 18.5833V48.2708H145.381V18.5833L149.559 15.1458L153.632 18.5833ZM165.33 18.5833L169.508 15.0417H129.505L133.683 18.5833V84.4167L129.505 87.9583H169.717L165.33 84.4167V18.5833ZM186.289 84.4167V18.5833L190.571 15.0417H170.309L174.591 18.5833V84.4167L170.309 87.9583H190.571L186.289 84.4167ZM191.402 30.25L196.102 19.8333H202.787V84.4167L198.922 87.9583H218.454L214.485 84.4167V19.8333H221.169L225.87 30.25V15.0417H191.402V30.25ZM228.35 18.5833V84.4167L224.172 87.9583H251.642V72.75L246.942 83.1667H240.048V53.0625H242.555L246.837 62.6458V38.4792L242.45 48.2708H240.048V19.8333H246.942L251.642 30.25V15.0417H224.172L228.35 18.5833ZM294.512 14C293.468 15.6667 291.692 17.0208 289.499 17.0208C286.261 17.0208 283.545 14 278.532 14C264.014 14 252.42 29.9375 252.42 51.9167C252.42 74.3125 262.552 89 276.756 89C287.201 89 294.617 80.3542 296.392 66.9167L295.661 66.7083C292.528 78.6875 287.201 82.4375 281.143 82.4375C271.952 82.4375 265.685 70.5625 265.685 50.25C265.685 30.875 269.967 16.3958 279.576 16.3958C286.365 16.3958 292.006 27.125 295.035 39.2083H295.348L294.512 14ZM297.211 30.25L301.912 19.8333H308.596V84.4167L304.732 87.9583H324.263L320.294 84.4167V19.8333H326.979L331.679 30.25V15.0417H297.211V30.25ZM355.724 15.0417L361.573 20.4583V73.2708C361.573 77.9583 358.335 80.3542 354.575 80.3542C350.711 80.3542 347.577 77.2292 347.577 73.375V18.5833L351.546 15.0417H331.91L335.879 18.5833V73.6875C335.879 81.8125 342.668 88.2708 351.129 88.2708C359.798 88.2708 366.378 81.8125 366.378 73.5833V20.4583L372.227 15.0417H355.724ZM388.642 68.7917C398.669 67.6458 407.129 56.0833 407.129 42.0208C407.129 27.0208 397.833 15.0417 387.075 15.0417H370.99L375.377 18.375V84.4167L371.513 87.9583H390.94L387.075 84.4167V72.3333C396.371 90.5625 406.502 88.2708 406.502 88.2708V71.3958C400.026 75.6667 393.551 72.9583 388.642 68.7917ZM387.075 18.1667C391.671 18.1667 395.326 28.7917 395.326 42.0208C395.326 55.1458 391.671 65.7708 387.075 65.7708V18.1667ZM412.708 18.5833V84.4167L408.53 87.9583H436V72.75L431.3 83.1667H424.406V53.0625H426.913L431.195 62.6458V38.4792L426.809 48.2708H424.406V19.8333H431.3L436 30.25V15.0417H408.53L412.708 18.5833Z" fill="#CDC6BE"/>
</svg>
