<svg width="234" height="106" viewBox="0 0 234 106" fill="none" xmlns="http://www.w3.org/2000/svg">
<rect width="234" height="106" fill="#1D1D1B"/>
<path d="M21.2653 35.2333L38.3953 91.35L52.6164 37.2917V87.2333L48.1992 90.9167H69.2077L64.6828 87.2333V18.55L69.4232 15.0833H53.2628L41.6273 57.6583L27.9449 15.0833H12L16.3094 18.55V87.2333L12.2155 90.9167H25.3592L21.2653 87.2333V35.2333ZM93.9306 15.0833L99.9638 20.7167V75.6417C99.9638 80.5167 96.624 83.0083 92.7455 83.0083C88.7593 83.0083 85.5272 79.7583 85.5272 75.75V18.7667L89.6212 15.0833H69.3669L73.4608 18.7667V76.075C73.4608 84.525 80.4636 91.2417 89.1902 91.2417C98.1323 91.2417 104.92 84.525 104.92 75.9667V20.7167L110.953 15.0833H93.9306ZM128.826 60.6917C136.26 66.4333 140.785 69.4667 140.785 76.1833C140.785 82.4667 136.906 86.0417 132.166 86.0417C123.87 86.0417 115.359 75.1 110.188 63.725V91.2417L114.712 87.2333C119.776 90.1583 125.163 91.2417 129.903 91.2417C139.815 91.2417 149.188 84.0917 149.188 70.6583C149.188 57.1167 142.077 51.4833 134.32 45.2C126.887 39.2417 118.699 34.3667 118.699 27.8667C118.699 22.2333 122.254 18.7667 127.21 18.7667C133.135 18.7667 136.906 21.5833 146.171 39.4583V14.7583L141.754 17.4667C138.63 16.275 134.32 14.7583 129.795 14.7583C118.052 14.7583 110.188 22.8833 110.188 35.125C110.188 47.6917 122.685 56.1417 128.826 60.6917ZM167.723 87.2333V18.7667L172.14 15.0833H151.239L155.656 18.7667V87.2333L151.239 90.9167H172.14L167.723 87.2333ZM217.061 14C215.983 15.7333 214.152 17.1417 211.889 17.1417C208.55 17.1417 205.748 14 200.577 14C185.602 14 173.643 30.575 173.643 53.4333C173.643 76.725 184.094 92 198.746 92C209.519 92 217.168 83.0083 219 69.0333L218.246 68.8167C215.014 81.275 209.519 85.175 203.271 85.175C193.79 85.175 187.326 72.825 187.326 51.7C187.326 31.55 191.743 16.4917 201.655 16.4917C208.657 16.4917 214.475 27.65 217.599 40.2167H217.923L217.061 14Z" fill="#CDC6BE"/>
</svg>
