<svg width="264" height="106" viewBox="0 0 264 106" fill="none" xmlns="http://www.w3.org/2000/svg">
<rect width="264" height="106" fill="#1D1D1B"/>
<path d="M55.5239 14C54.4439 15.7333 52.6079 17.1417 50.3399 17.1417C46.9919 17.1417 44.1839 14 38.9999 14C23.988 14 12 30.575 12 53.4333C12 76.725 22.476 92 37.1639 92C47.9639 92 55.6319 83.0083 57.4679 69.0333L56.7119 68.8167C53.4719 81.275 47.9639 85.175 41.6999 85.175C32.196 85.175 25.716 72.825 25.716 51.7C25.716 31.55 30.144 16.4917 40.0799 16.4917C47.0999 16.4917 52.9319 27.65 56.0639 40.2167H56.3879L55.5239 14ZM74.8391 87.2333V18.7667L79.2671 15.0833H58.3152L62.7432 18.7667V87.2333L58.3152 90.9167H79.2671L74.8391 87.2333ZM117.172 20.7167V55.4917L95.4643 15.0833H79.6963L87.0403 26.7833V85.2833L80.7763 90.9167H98.2723L92.0083 85.2833V33.7167L122.14 91.2417V20.7167L128.404 15.0833H110.908L117.172 20.7167ZM132.042 18.7667V87.2333L127.722 90.9167H156.126V75.1L151.266 85.9333H144.138V54.625H146.73L151.158 64.5917V39.4583L146.622 49.6417H144.138V20.0667H151.266L156.126 30.9V15.0833H127.722L132.042 18.7667ZM165.246 35.2333L182.418 91.35L196.674 37.2917V87.2333L192.246 90.9167H213.306L208.77 87.2333V18.55L213.522 15.0833H197.322L185.658 57.6583L171.942 15.0833H155.958L160.278 18.55V87.2333L156.174 90.9167H169.35L165.246 87.2333V35.2333ZM226.376 35.5583L231.668 69.575H221.408L226.376 35.5583ZM223.244 15.0833L224.324 18.7667L213.848 87.2333L209.744 90.9167H222.812L218.708 87.2333L220.652 74.5583H232.424L234.368 87.2333L229.832 90.9167H251L246.572 87.2333L235.34 15.0833H223.244Z" fill="#CDC6BE"/>
</svg>
