<svg width="375" height="106" viewBox="0 0 375 106" fill="none" xmlns="http://www.w3.org/2000/svg">
<rect width="375" height="106" fill="#1D1D1B"/>
<path d="M53.0929 42.7681C53.0929 27.475 43.6767 15.0694 32.5484 15.0694H15L20.1361 18.7056V86.2944L15.856 89.9306H37.3635L32.1204 86.2944V70.3597C43.1417 70.3597 53.0929 58.0611 53.0929 42.7681ZM32.1204 67.1514V18.2778C37.2565 18.2778 41.0016 29.1861 41.0016 42.7681C41.0016 56.2431 37.2565 67.1514 32.1204 67.1514ZM107.815 52.5C107.815 30.0417 96.0451 14 81.4928 14C66.8334 14 55.1701 30.0417 55.1701 52.5C55.1701 74.9583 66.8334 91 81.4928 91C96.0451 91 107.815 74.9583 107.815 52.5ZM93.9051 52.5C93.9051 73.5681 90.695 88.6472 81.4928 88.6472C72.1836 88.6472 69.0805 73.5681 69.0805 52.5C69.0805 31.4319 72.1836 16.3528 81.4928 16.3528C90.695 16.3528 93.9051 31.4319 93.9051 52.5ZM126.117 70.2528C136.389 69.0764 145.056 57.2056 145.056 42.7681C145.056 27.3681 135.533 15.0694 124.512 15.0694H108.034L112.528 18.4917V86.2944L108.569 89.9306H128.471L124.512 86.2944V73.8889C134.035 92.6042 144.414 90.2514 144.414 90.2514V72.9264C137.78 77.3111 131.146 74.5306 126.117 70.2528ZM124.512 18.2778C129.22 18.2778 132.965 29.1861 132.965 42.7681C132.965 56.2431 129.22 67.1514 124.512 67.1514V18.2778ZM144.352 30.6833L149.167 19.9889H156.015V86.2944L152.056 89.9306H172.066L168 86.2944V19.9889H174.848L179.663 30.6833V15.0694H144.352V30.6833ZM180.434 15.0694L184.714 18.7056V86.2944L180.327 89.9306H201.3L196.699 86.2944V54.1042H199.267L203.654 63.9431V39.1319L199.053 49.1847H196.699V19.9889H203.654L208.576 30.6833V15.0694H180.434ZM260.946 52.5C260.946 30.0417 249.176 14 234.623 14C219.964 14 208.301 30.0417 208.301 52.5C208.301 74.9583 219.964 91 234.623 91C249.176 91 260.946 74.9583 260.946 52.5ZM247.036 52.5C247.036 73.5681 243.826 88.6472 234.623 88.6472C225.314 88.6472 222.211 73.5681 222.211 52.5C222.211 31.4319 225.314 16.3528 234.623 16.3528C243.826 16.3528 247.036 31.4319 247.036 52.5ZM277.429 18.7056L282.137 15.0694H261.165L265.445 18.7056V86.2944L261.165 89.9306H289.306V74.3167L284.491 85.0111H277.429V18.7056ZM305.544 86.2944V18.7056L309.932 15.0694H289.173L293.56 18.7056V86.2944L289.173 89.9306H309.932L305.544 86.2944ZM363 52.5C363 30.0417 351.23 14 336.677 14C322.018 14 310.355 30.0417 310.355 52.5C310.355 74.9583 322.018 91 336.677 91C351.23 91 363 74.9583 363 52.5ZM349.09 52.5C349.09 73.5681 345.88 88.6472 336.677 88.6472C327.368 88.6472 324.265 73.5681 324.265 52.5C324.265 31.4319 327.368 16.3528 336.677 16.3528C345.88 16.3528 349.09 31.4319 349.09 52.5Z" fill="#CDC6BE"/>
</svg>
