<svg width="256" height="106" viewBox="0 0 256 106" fill="none" xmlns="http://www.w3.org/2000/svg">
<rect width="256" height="106" fill="#1D1D1B"/>
<path d="M31.4309 18.318C37.2602 20.1531 41.902 35.4821 41.902 52.97C41.902 70.242 37.2602 85.5708 31.4309 87.406V18.318ZM15.0225 15.0795L19.3405 18.7498V86.9742L15.0225 90.6445H31.4309C45.8962 90.6445 53.9924 73.6964 53.9924 53.4017C53.9924 33.1071 45.8962 15.0795 31.4309 15.0795H15.0225Z" fill="#CDC6BE"/>
<path d="M69.3635 86.9742V18.7498L73.7894 15.0795H52.8471L57.2731 18.7498V86.9742L52.8471 90.6445H73.7894L69.3635 86.9742Z" fill="#CDC6BE"/>
<path d="M102.175 16.4829C109.84 16.4829 116.209 27.6017 119.555 40.1239H119.879L118.907 14C117.828 15.7272 115.993 17.1305 113.618 17.1305C110.271 17.1305 106.709 14 101.204 14C87.0622 14 74.2162 29.8687 74.2162 53.9415C74.2162 75.8554 84.3635 91.724 98.1811 91.724C105.738 91.724 111.675 87.298 113.618 80.6051L121.93 91.724H122.146V67.8671C122.146 60.7424 122.578 57.7198 125.924 55.3448V55.129H105.09V55.3448C109.624 57.9357 110.811 60.9582 110.811 67.975V73.2645C110.811 82.8721 106.385 88.2696 100.88 88.2696C91.4882 88.2696 87.7099 74.1281 87.7099 53.8335C87.7099 31.1641 92.7836 16.4829 102.175 16.4829Z" fill="#CDC6BE"/>
<path d="M141.112 86.9742V18.7498L145.538 15.0795H124.596L129.022 18.7498V86.9742L124.596 90.6445H145.538L141.112 86.9742Z" fill="#CDC6BE"/>
<path d="M145.317 30.8402L150.175 20.0452H157.084V86.9742L153.09 90.6445H173.276L169.174 86.9742V20.0452H176.083L180.941 30.8402V15.0795H145.317V30.8402Z" fill="#CDC6BE"/>
<path d="M191.739 35.482L197.029 69.3783H186.773L191.739 35.482ZM188.609 15.0795L189.688 18.7498L179.217 86.9742L175.115 90.6445H188.177L184.075 86.9742L186.018 74.344H197.784L199.727 86.9742L195.194 90.6445H216.352L211.926 86.9742L200.699 15.0795H188.609Z" fill="#CDC6BE"/>
<path d="M230.864 18.7498L235.614 15.0795H214.456L218.774 18.7498V86.9742L214.456 90.6445H242.847V74.8838L237.989 85.6788H230.864V18.7498Z" fill="#CDC6BE"/>
</svg>
