<svg width="309" height="82" viewBox="0 0 309 82" fill="none" xmlns="http://www.w3.org/2000/svg">
<path d="M16.0143 20.6248L21.0366 52.8084H11.2995L16.0143 20.6248ZM13.0419 1.25309L14.0669 4.73794L4.12478 69.5152L0.229947 73H12.6319L8.73708 69.5152L10.582 57.5232H21.754L23.5989 69.5152L19.2941 73H39.3833L35.1809 69.5152L24.5214 1.25309H13.0419ZM81.7372 81.7121C88.2969 81.7121 91.5767 75.7674 89.7318 67.8752H89.4243C88.9119 71.1551 86.6569 72.59 84.0946 72.59C81.0197 72.59 78.8673 70.8476 77.0224 68.4902C83.8896 62.1355 88.5019 50.9634 88.5019 37.229C88.5019 15.705 77.2274 0.330627 63.288 0.330627C49.2461 0.330627 38.074 15.705 38.074 37.229C38.074 58.7531 49.2461 74.1275 63.288 74.1275C66.0553 74.1275 68.7202 73.5125 71.2826 72.385C73.64 77.3048 76.5099 81.7121 81.7372 81.7121ZM51.3985 37.229C51.3985 17.0374 54.3708 2.58553 63.288 2.58553C72.1026 2.58553 75.1774 17.0374 75.1774 37.229C75.1774 47.1711 74.46 55.6782 72.6151 61.7255C70.2577 58.1381 67.2853 54.9608 62.3655 54.9608C57.4457 54.9608 54.0633 59.0606 54.7808 64.3904C52.3209 58.1381 51.3985 48.6061 51.3985 37.229ZM63.288 71.8725C60.3156 71.8725 57.9582 70.2326 56.2158 67.3627C54.5758 61.623 57.5482 58.2406 60.9306 58.2406C65.1329 58.2406 67.2853 63.1604 69.5402 68.4902C67.9003 70.6426 65.8503 71.8725 63.288 71.8725ZM111.67 1.25309L117.41 6.58286V58.5481C117.41 63.1604 114.232 65.5178 110.542 65.5178C106.75 65.5178 103.675 62.443 103.675 58.6506V4.73794L107.57 1.25309H88.3009L92.1957 4.73794V58.9581C92.1957 66.9528 98.8579 73.3075 107.16 73.3075C115.667 73.3075 122.124 66.9528 122.124 58.8556V6.58286L127.864 1.25309H111.67ZM129.725 4.73794V69.5152L125.625 73H152.582V58.0356L147.969 68.2852H141.205V38.664H143.665L147.867 48.0936V24.3146L143.562 33.9492H141.205V5.96788H147.969L152.582 16.2174V1.25309H125.625L129.725 4.73794ZM170.052 54.1408C179.892 53.0134 188.194 41.6363 188.194 27.7994C188.194 13.0401 179.072 1.25309 168.515 1.25309H152.731L157.035 4.53295V69.5152L153.243 73H172.307L168.515 69.5152V57.6257C177.637 75.5624 187.579 73.3075 187.579 73.3075V56.7032C181.224 60.9055 174.87 58.2406 170.052 54.1408ZM168.515 4.32796C173.025 4.32796 176.612 14.7825 176.612 27.7994C176.612 40.7139 173.025 51.1684 168.515 51.1684V4.32796ZM238.562 37.1265C238.562 15.6025 227.287 0.228132 213.348 0.228132C199.306 0.228132 188.134 15.6025 188.134 37.1265C188.134 58.6506 199.306 74.025 213.348 74.025C227.287 74.025 238.562 58.6506 238.562 37.1265ZM225.237 37.1265C225.237 57.3182 222.163 71.7701 213.348 71.7701C204.431 71.7701 201.458 57.3182 201.458 37.1265C201.458 16.9349 204.431 2.48304 213.348 2.48304C222.163 2.48304 225.237 16.9349 225.237 37.1265ZM273.004 6.58286V39.4839L252.403 1.25309H237.438L244.408 12.3226V67.6702L238.463 73H255.068L249.123 67.6702V18.8823L277.719 73.3075V6.58286L283.664 1.25309H267.06L273.004 6.58286ZM286.091 4.73794V69.5152L281.991 73H308.947V58.0356L304.335 68.2852H297.57V38.664H300.03L304.233 48.0936V24.3146L299.928 33.9492H297.57V5.96788H304.335L308.947 16.2174V1.25309H281.991L286.091 4.73794Z" fill="#1D1D1B"/>
</svg>
