<svg width="228" height="84" viewBox="0 0 228 84" fill="none" xmlns="http://www.w3.org/2000/svg">
<path d="M44.835 0.449996C43.785 2.13 42 3.49499 39.795 3.49499C36.54 3.49499 33.81 0.449996 28.77 0.449996C14.175 0.449996 2.52 16.515 2.52 38.67C2.52 61.245 12.705 76.05 26.985 76.05C37.485 76.05 44.94 67.335 46.725 53.79L45.99 53.58C42.84 65.655 37.485 69.435 31.395 69.435C22.155 69.435 15.855 57.465 15.855 36.99C15.855 17.46 20.16 2.865 29.82 2.865C36.645 2.865 42.315 13.68 45.36 25.86H45.675L44.835 0.449996ZM98.7886 38.25C98.7886 16.2 87.2386 0.449996 72.9586 0.449996C58.5736 0.449996 47.1286 16.2 47.1286 38.25C47.1286 60.3 58.5736 76.05 72.9586 76.05C87.2386 76.05 98.7886 60.3 98.7886 38.25ZM85.1386 38.25C85.1386 58.935 81.9886 73.74 72.9586 73.74C63.8236 73.74 60.7786 58.935 60.7786 38.25C60.7786 17.565 63.8236 2.76 72.9586 2.76C81.9886 2.76 85.1386 17.565 85.1386 38.25ZM118.428 33.105C125.043 30.795 131.028 24.705 131.028 17.565C131.028 8.64 122.313 1.49999 112.968 1.49999H96.9027L101.208 5.07V71.43L96.9027 75H112.863C126.198 75 135.543 65.34 135.543 53.79C135.543 43.815 128.088 35.52 118.428 33.105ZM112.968 35.1C118.113 35.205 123.363 43.29 123.363 53.685C123.363 64.08 118.113 71.85 112.968 71.85V35.1ZM112.968 4.65C116.853 4.65 120.003 9.9 120.003 17.775C120.003 25.755 116.853 31.95 112.968 31.95V4.65ZM187.317 38.25C187.317 16.2 175.767 0.449996 161.487 0.449996C147.102 0.449996 135.657 16.2 135.657 38.25C135.657 60.3 147.102 76.05 161.487 76.05C175.767 76.05 187.317 60.3 187.317 38.25ZM173.667 38.25C173.667 58.935 170.517 73.74 161.487 73.74C152.352 73.74 149.307 58.935 149.307 38.25C149.307 17.565 152.352 2.76 161.487 2.76C170.517 2.76 173.667 17.565 173.667 38.25Z" fill="#1D1D1B"/>
<path d="M208.947 38C219.442 38 228 29.4003 228 18.9194C228 8.54597 219.496 0 209.001 0C198.505 0 190.001 8.54597 190.001 18.9194C189.893 29.4003 198.451 38 208.947 38ZM208.947 35.4738C199.851 35.4738 192.477 28.0566 192.531 18.9194C192.531 9.88967 199.904 2.52617 209.001 2.52617C218.097 2.52617 225.47 9.88967 225.47 18.9194C225.47 28.0566 218.043 35.4738 208.947 35.4738ZM216.536 20.7468C214.76 24.4554 210.723 27.5728 206.632 27.5728C203.026 27.5728 200.443 25.0467 200.443 21.3918C200.443 15.8557 205.825 10.5347 211.315 10.5347C214.76 10.5347 217.397 12.8458 217.505 16.3932H219.388C218.097 11.6096 213.898 8.27723 208.947 8.27723C203.026 8.27723 198.29 13.1146 198.29 18.9194C198.128 24.8854 203.026 29.7228 208.947 29.7228C214.221 29.7228 218.635 25.9604 219.55 20.7468H216.536Z" fill="#1D1D1B"/>
</svg>
