<svg width="147" height="19" viewBox="0 0 147 19" fill="none" xmlns="http://www.w3.org/2000/svg">
<path d="M9.6 6.975C9.6 3.4 7.4 0.499999 4.8 0.499999H0.7L1.9 1.35V17.15L0.9 18H5.925L4.7 17.15V13.425C7.275 13.425 9.6 10.55 9.6 6.975ZM4.7 12.675V1.25C5.9 1.25 6.775 3.8 6.775 6.975C6.775 10.125 5.9 12.675 4.7 12.675ZM12.6773 5.225L13.9023 13.075H11.5273L12.6773 5.225ZM11.9523 0.499999L12.2023 1.35L9.77734 17.15L8.82734 18H11.8523L10.9023 17.15L11.3523 14.225H14.0773L14.5273 17.15L13.4773 18H18.3773L17.3523 17.15L14.7523 0.499999H11.9523ZM22.043 1.25C23.393 1.675 24.468 5.225 24.468 9.275C24.468 13.275 23.393 16.825 22.043 17.25V1.25ZM18.243 0.499999L19.243 1.35V17.15L18.243 18H22.043C25.393 18 27.268 14.075 27.268 9.375C27.268 4.675 25.393 0.499999 22.043 0.499999H18.243ZM31.5713 1.25C32.9213 1.675 33.9963 5.225 33.9963 9.275C33.9963 13.275 32.9213 16.825 31.5713 17.25V1.25ZM27.7713 0.499999L28.7713 1.35V17.15L27.7713 18H31.5713C34.9213 18 36.7963 14.075 36.7963 9.375C36.7963 4.675 34.9213 0.499999 31.5713 0.499999H27.7713ZM40.8561 17.15V1.35L41.8811 0.499999H37.0311L38.0561 1.35V17.15L37.0311 18H41.8811L40.8561 17.15ZM47.8541 5.15L51.8291 18.1L55.1291 5.625V17.15L54.1041 18H58.9791L57.9291 17.15V1.3L59.0291 0.499999H55.2791L52.5791 10.325L49.4041 0.499999H45.7041L46.7041 1.3V17.15L45.7541 18H48.8041L47.8541 17.15V5.15ZM62.816 5.225L64.041 13.075H61.666L62.816 5.225ZM62.091 0.499999L62.341 1.35L59.916 17.15L58.966 18H61.991L61.041 17.15L61.491 14.225H64.216L64.666 17.15L63.616 18H68.516L67.491 17.15L64.891 0.499999H62.091ZM77.7717 0.249999C77.5217 0.65 77.0967 0.974999 76.5717 0.974999C75.7967 0.974999 75.1467 0.249999 73.9467 0.249999C70.4717 0.249999 67.6967 4.075 67.6967 9.35C67.6967 14.725 70.1217 18.25 73.5217 18.25C76.0217 18.25 77.7967 16.175 78.2217 12.95L78.0467 12.9C77.2967 15.775 76.0217 16.675 74.5717 16.675C72.3717 16.675 70.8717 13.825 70.8717 8.95C70.8717 4.3 71.8967 0.824999 74.1967 0.824999C75.8217 0.824999 77.1717 3.4 77.8967 6.3H77.9717L77.7717 0.249999ZM78.3178 18H83.1678C87.1428 18 90.8428 15.15 90.8428 9.075C90.8428 3.375 87.2678 0.499999 82.7928 0.499999H78.3178V0.55C79.4428 1.1 79.6428 1.8 79.6428 3.45V15.05C79.6428 16.7 79.4428 17.4 78.3178 17.95V18ZM82.4678 17.4V1.1H82.7428C85.7928 1.1 87.7428 3.8 87.7428 9.075C87.7428 15.05 85.7928 17.4 82.9928 17.4H82.4678ZM103.594 9.25C103.594 4 100.844 0.249999 97.4443 0.249999C94.0193 0.249999 91.2943 4 91.2943 9.25C91.2943 14.5 94.0193 18.25 97.4443 18.25C100.844 18.25 103.594 14.5 103.594 9.25ZM100.344 9.25C100.344 14.175 99.5943 17.7 97.4443 17.7C95.2693 17.7 94.5443 14.175 94.5443 9.25C94.5443 4.325 95.2693 0.799999 97.4443 0.799999C99.5943 0.799999 100.344 4.325 100.344 9.25ZM112.495 1.8V9.825L107.47 0.499999H103.82L105.52 3.2V16.7L104.07 18H108.12L106.67 16.7V4.8L113.645 18.075V1.8L115.095 0.499999H111.045L112.495 1.8ZM123.415 1.8V9.825L118.39 0.499999H114.74L116.44 3.2V16.7L114.99 18H119.04L117.59 16.7V4.8L124.565 18.075V1.8L126.015 0.499999H121.965L123.415 1.8ZM127.107 1.35V17.15L126.107 18H132.682V14.35L131.557 16.85H129.907V9.625H130.507L131.532 11.925V6.125L130.482 8.475H129.907V1.65H131.557L132.682 4.15V0.499999H126.107L127.107 1.35ZM137.019 1.35L138.119 0.499999H133.219L134.219 1.35V17.15L133.219 18H139.794V14.35L138.669 16.85H137.019V1.35ZM143.813 1.35L144.913 0.499999H140.013L141.013 1.35V17.15L140.013 18H146.588V14.35L145.463 16.85H143.813V1.35Z" fill="#1D1D1B"/>
</svg>
