<svg width="118" height="19" viewBox="0 0 118 19" fill="none" xmlns="http://www.w3.org/2000/svg">
<path d="M2.525 5.15L6.5 18.1L9.8 5.625V17.15L8.775 18H13.65L12.6 17.15V1.3L13.7 0.499999H9.95L7.25 10.325L4.075 0.499999H0.375L1.375 1.3V17.15L0.425 18H3.475L2.525 17.15V5.15ZM16.9254 5.225L18.1504 13.075H15.7754L16.9254 5.225ZM16.2004 0.499999L16.4504 1.35L14.0254 17.15L13.0754 18H16.1004L15.1504 17.15L15.6004 14.225H18.3254L18.7754 17.15L17.7254 18H22.6254L21.6004 17.15L19.0004 0.499999H16.2004ZM26.5695 13.4C28.9695 13.125 30.9945 10.35 30.9945 6.975C30.9945 3.375 28.7695 0.499999 26.1945 0.499999H22.3445L23.3945 1.3V17.15L22.4695 18H27.1195L26.1945 17.15V14.25C28.4195 18.625 30.8445 18.075 30.8445 18.075V14.025C29.2945 15.05 27.7445 14.4 26.5695 13.4ZM26.1945 1.25C27.2945 1.25 28.1695 3.8 28.1695 6.975C28.1695 10.125 27.2945 12.675 26.1945 12.675V1.25ZM33.2049 1.35V12.8C33.2049 15.275 32.5299 17.5 31.5799 18.075V18.1C34.0799 17.85 36.0049 15.7 36.0049 13.15V1.35L37.0049 0.499999H32.2049L33.2049 1.35ZM49.2453 1.8V9.825L44.2203 0.499999H40.5703L42.2703 3.2V16.7L40.8203 18H44.8703L43.4203 16.7V4.8L50.3953 18.075V1.8L51.8453 0.499999H47.7953L49.2453 1.8ZM52.9373 1.35V17.15L51.9373 18H58.5123V14.35L57.3873 16.85H55.7373V9.625H56.3373L57.3623 11.925V6.125L56.3123 8.475H55.7373V1.65H57.3873L58.5123 4.15V0.499999H51.9373L52.9373 1.35ZM71.4986 1.8L69.8486 14.2L68.1236 1.35L69.1486 0.499999H64.2486L65.2986 1.35L65.5736 3.45L64.1486 14.2L62.3986 1.35L63.4486 0.499999H58.5486L59.5736 1.35L61.8236 18H64.7986L66.1486 7.725L67.5236 18H70.5236L72.6486 1.8L74.1986 0.499999H69.9986L71.4986 1.8ZM82.4201 1.8V9.825L77.3951 0.499999H73.7451L75.4451 3.2V16.7L73.9951 18H78.0451L76.5951 16.7V4.8L83.5701 18.075V1.8L85.0201 0.499999H80.9701L82.4201 1.8ZM89.1563 17.15V9.625H91.1313V17.15L90.1813 17.95L89.1563 17.15ZM91.1313 1.35V8.475H89.1563V1.35L90.1563 0.524998L91.1313 1.35ZM93.9313 1.35L94.9313 0.499999H85.3563L86.3563 1.35V17.15L85.3563 18H94.9813L93.9313 17.15V1.35ZM99.0914 5.225L100.316 13.075H97.9414L99.0914 5.225ZM98.3664 0.499999L98.6164 1.35L96.1914 17.15L95.2414 18H98.2664L97.3164 17.15L97.7664 14.225H100.491L100.941 17.15L99.8914 18H104.791L103.766 17.15L101.166 0.499999H98.3664ZM106.336 5.15L110.311 18.1L113.611 5.625V17.15L112.586 18H117.461L116.411 17.15V1.3L117.511 0.499999H113.761L111.061 10.325L107.886 0.499999H104.186L105.186 1.3V17.15L104.236 18H107.286L106.336 17.15V5.15Z" fill="#1D1D1B"/>
</svg>
