<svg width="114" height="19" viewBox="0 0 114 19" fill="none" xmlns="http://www.w3.org/2000/svg">
<path d="M1.7 1.35V17.15L0.7 18H7.275V14.35L6.15 16.85H4.5V9.625H5.1L6.125 11.925V6.125L5.075 8.475H4.5V1.65H6.15L7.275 4.15V0.499999H0.7L1.7 1.35ZM11.6113 1.35L12.7113 0.499999H7.81133L8.81133 1.35V17.15L7.81133 18H14.3863V14.35L13.2613 16.85H11.6113V1.35ZM18.4303 17.15V1.35L19.4553 0.499999H14.6053L15.6303 1.35V17.15L14.6053 18H19.4553L18.4303 17.15ZM29.5291 0.499999H20.7041V4.15L21.8291 1.65H26.1291L20.0791 18H29.5291V14.35L28.4041 16.85H23.4541L29.5291 0.499999ZM33.4254 5.225L34.6504 13.075H32.2754L33.4254 5.225ZM32.7004 0.499999L32.9504 1.35L30.5254 17.15L29.5754 18H32.6004L31.6504 17.15L32.1004 14.225H34.8254L35.2754 17.15L34.2254 18H39.1254L38.1004 17.15L35.5004 0.499999H32.7004ZM55.3053 1.8L53.6553 14.2L51.9303 1.35L52.9553 0.499999H48.0553L49.1053 1.35L49.3803 3.45L47.9553 14.2L46.2053 1.35L47.2553 0.499999H42.3553L43.3803 1.35L45.6303 18H48.6053L49.9553 7.725L51.3303 18H54.3303L56.4553 1.8L58.0053 0.499999H53.8053L55.3053 1.8ZM61.8238 17.15V1.35L62.8488 0.499999H57.9988L59.0238 1.35V17.15L57.9988 18H62.8488L61.8238 17.15ZM67.3477 1.35L68.4477 0.499999H63.5477L64.5477 1.35V17.15L63.5477 18H70.1227V14.35L68.9977 16.85H67.3477V1.35ZM74.1416 1.35L75.2416 0.499999H70.3416L71.3416 1.35V17.15L70.3416 18H76.9166V14.35L75.7916 16.85H74.1416V1.35ZM80.9605 17.15V1.35L81.9855 0.499999H77.1355L78.1605 1.35V17.15L77.1355 18H81.9855L80.9605 17.15ZM86.1344 5.225L87.3594 13.075H84.9844L86.1344 5.225ZM85.4094 0.499999L85.6594 1.35L83.2344 17.15L82.2844 18H85.3094L84.3594 17.15L84.8094 14.225H87.5344L87.9844 17.15L86.9344 18H91.8344L90.8094 17.15L88.2094 0.499999H85.4094ZM93.3785 5.15L97.3535 18.1L100.654 5.625V17.15L99.6285 18H104.504L103.454 17.15V1.3L104.554 0.499999H100.804L98.1035 10.325L94.9285 0.499999H91.2285L92.2285 1.3V17.15L91.2785 18H94.3285L93.3785 17.15V5.15ZM108.699 11.025C110.424 12.35 111.474 13.05 111.474 14.6C111.474 16.05 110.574 16.875 109.474 16.875C107.549 16.875 105.574 14.35 104.374 11.725V18.075L105.424 17.15C106.599 17.825 107.849 18.075 108.949 18.075C111.249 18.075 113.424 16.425 113.424 13.325C113.424 10.2 111.774 8.9 109.974 7.45C108.249 6.075 106.349 4.95 106.349 3.45C106.349 2.15 107.174 1.35 108.324 1.35C109.699 1.35 110.574 2 112.724 6.125V0.425L111.699 1.05C110.974 0.775 109.974 0.425 108.924 0.425C106.199 0.425 104.374 2.3 104.374 5.125C104.374 8.025 107.274 9.975 108.699 11.025Z" fill="#1D1D1B"/>
</svg>
