<svg width="122" height="19" viewBox="0 0 122 19" fill="none" xmlns="http://www.w3.org/2000/svg">
<path d="M10.675 0.249999C10.425 0.65 10 0.974999 9.475 0.974999C8.7 0.974999 8.05 0.249999 6.85 0.249999C3.375 0.249999 0.6 4.075 0.6 9.35C0.6 14.725 3.025 18.25 6.425 18.25C8.925 18.25 10.7 16.175 11.125 12.95L10.95 12.9C10.2 15.775 8.925 16.675 7.475 16.675C5.275 16.675 3.775 13.825 3.775 8.95C3.775 4.3 4.8 0.824999 7.1 0.824999C8.725 0.824999 10.075 3.4 10.8 6.3H10.875L10.675 0.249999ZM14.2711 5.225L15.4961 13.075H13.1211L14.2711 5.225ZM13.5461 0.499999L13.7961 1.35L11.3711 17.15L10.4211 18H13.4461L12.4961 17.15L12.9461 14.225H15.6711L16.1211 17.15L15.0711 18H19.9711L18.9461 17.15L16.3461 0.499999H13.5461ZM23.9152 13.4C26.3152 13.125 28.3402 10.35 28.3402 6.975C28.3402 3.375 26.1152 0.499999 23.5402 0.499999H19.6902L20.7402 1.3V17.15L19.8152 18H24.4652L23.5402 17.15V14.25C25.7652 18.625 28.1902 18.075 28.1902 18.075V14.025C26.6402 15.05 25.0902 14.4 23.9152 13.4ZM23.5402 1.25C24.6402 1.25 25.5152 3.8 25.5152 6.975C25.5152 10.125 24.6402 12.675 23.5402 12.675V1.25ZM33.1506 13.4C35.5506 13.125 37.5756 10.35 37.5756 6.975C37.5756 3.375 35.3506 0.499999 32.7756 0.499999H28.9256L29.9756 1.3V17.15L29.0506 18H33.7006L32.7756 17.15V14.25C35.0006 18.625 37.4256 18.075 37.4256 18.075V14.025C35.8756 15.05 34.3256 14.4 33.1506 13.4ZM32.7756 1.25C33.8756 1.25 34.7506 3.8 34.7506 6.975C34.7506 10.125 33.8756 12.675 32.7756 12.675V1.25ZM42.2545 17.15V1.35L43.2795 0.499999H38.4295L39.4545 1.35V17.15L38.4295 18H43.2795L42.2545 17.15ZM44.1238 1.35V17.15L43.1238 18H49.6988V14.35L48.5738 16.85H46.9238V9.625H47.5238L48.5488 11.925V6.125L47.4988 8.475H46.9238V1.65H48.5738L49.6988 4.15V0.499999H43.1238L44.1238 1.35ZM63.6594 0.249999C63.4094 0.65 62.9844 0.974999 62.4594 0.974999C61.6844 0.974999 61.0344 0.249999 59.8344 0.249999C56.3594 0.249999 53.5844 4.075 53.5844 9.35C53.5844 14.725 56.0094 18.25 59.4094 18.25C61.9094 18.25 63.6844 16.175 64.1094 12.95L63.9344 12.9C63.1844 15.775 61.9094 16.675 60.4594 16.675C58.2594 16.675 56.7594 13.825 56.7594 8.95C56.7594 4.3 57.7844 0.824999 60.0844 0.824999C61.7094 0.824999 63.0594 3.4 63.7844 6.3H63.8594L63.6594 0.249999ZM76.5055 9.25C76.5055 4 73.7555 0.249999 70.3555 0.249999C66.9305 0.249999 64.2055 4 64.2055 9.25C64.2055 14.5 66.9305 18.25 70.3555 18.25C73.7555 18.25 76.5055 14.5 76.5055 9.25ZM73.2555 9.25C73.2555 14.175 72.5055 17.7 70.3555 17.7C68.1805 17.7 67.4555 14.175 67.4555 9.25C67.4555 4.325 68.1805 0.799999 70.3555 0.799999C72.5055 0.799999 73.2555 4.325 73.2555 9.25ZM82.4064 0.499999L83.8064 1.8V14.475C83.8064 15.6 83.0314 16.175 82.1314 16.175C81.2064 16.175 80.4564 15.425 80.4564 14.5V1.35L81.4064 0.499999H76.7064L77.6564 1.35V14.575C77.6564 16.525 79.2814 18.075 81.3064 18.075C83.3814 18.075 84.9564 16.525 84.9564 14.55V1.8L86.3564 0.499999H82.4064ZM90.7539 11.025C92.4789 12.35 93.5289 13.05 93.5289 14.6C93.5289 16.05 92.6289 16.875 91.5289 16.875C89.6039 16.875 87.6289 14.35 86.4289 11.725V18.075L87.4789 17.15C88.6539 17.825 89.9039 18.075 91.0039 18.075C93.3039 18.075 95.4789 16.425 95.4789 13.325C95.4789 10.2 93.8289 8.9 92.0289 7.45C90.3039 6.075 88.4039 4.95 88.4039 3.45C88.4039 2.15 89.2289 1.35 90.3789 1.35C91.7539 1.35 92.6289 2 94.7789 6.125V0.425L93.7539 1.05C93.0289 0.775 92.0289 0.425 90.9789 0.425C88.2539 0.425 86.4289 2.3 86.4289 5.125C86.4289 8.025 89.3289 9.975 90.7539 11.025ZM100.03 17.15V1.35L101.055 0.499999H96.2049L97.2299 1.35V17.15L96.2049 18H101.055L100.03 17.15ZM110.079 1.8V9.825L105.054 0.499999H101.404L103.104 3.2V16.7L101.654 18H105.704L104.254 16.7V4.8L111.229 18.075V1.8L112.679 0.499999H108.629L110.079 1.8ZM117.19 11.025C118.915 12.35 119.965 13.05 119.965 14.6C119.965 16.05 119.065 16.875 117.965 16.875C116.04 16.875 114.065 14.35 112.865 11.725V18.075L113.915 17.15C115.09 17.825 116.34 18.075 117.44 18.075C119.74 18.075 121.915 16.425 121.915 13.325C121.915 10.2 120.265 8.9 118.465 7.45C116.74 6.075 114.84 4.95 114.84 3.45C114.84 2.15 115.665 1.35 116.815 1.35C118.19 1.35 119.065 2 121.215 6.125V0.425L120.19 1.05C119.465 0.775 118.465 0.425 117.415 0.425C114.69 0.425 112.865 2.3 112.865 5.125C112.865 8.025 115.765 9.975 117.19 11.025Z" fill="#1D1D1B"/>
</svg>
