<svg width="174" height="19" viewBox="0 0 174 19" fill="none" xmlns="http://www.w3.org/2000/svg">
<path d="M10.675 0.249999C10.425 0.65 10 0.974999 9.475 0.974999C8.7 0.974999 8.05 0.249999 6.85 0.249999C3.375 0.249999 0.6 4.075 0.6 9.35C0.6 14.725 3.025 18.25 6.425 18.25C8.925 18.25 10.7 16.175 11.125 12.95L10.95 12.9C10.2 15.775 8.925 16.675 7.475 16.675C5.275 16.675 3.775 13.825 3.775 8.95C3.775 4.3 4.8 0.824999 7.1 0.824999C8.725 0.824999 10.075 3.4 10.8 6.3H10.875L10.675 0.249999ZM23.7711 9.25C23.7711 4 21.0211 0.249999 17.6211 0.249999C14.1961 0.249999 11.4711 4 11.4711 9.25C11.4711 14.5 14.1961 18.25 17.6211 18.25C21.0211 18.25 23.7711 14.5 23.7711 9.25ZM20.5211 9.25C20.5211 14.175 19.7711 17.7 17.6211 17.7C15.4461 17.7 14.7211 14.175 14.7211 9.25C14.7211 4.325 15.4461 0.799999 17.6211 0.799999C19.7711 0.799999 20.5211 4.325 20.5211 9.25ZM26.1471 5.15L30.1221 18.1L33.4221 5.625V17.15L32.3971 18H37.2721L36.2221 17.15V1.3L37.3221 0.499999H33.5721L30.8721 10.325L27.6971 0.499999H23.9971L24.9971 1.3V17.15L24.0471 18H27.0971L26.1471 17.15V5.15ZM39.484 5.15L43.459 18.1L46.759 5.625V17.15L45.734 18H50.609L49.559 17.15V1.3L50.659 0.499999H46.909L44.209 10.325L41.034 0.499999H37.334L38.334 1.3V17.15L37.384 18H40.434L39.484 17.15V5.15ZM56.5959 0.499999L57.9959 1.8V14.475C57.9959 15.6 57.2209 16.175 56.3209 16.175C55.3959 16.175 54.6459 15.425 54.6459 14.5V1.35L55.5959 0.499999H50.8959L51.8459 1.35V14.575C51.8459 16.525 53.4709 18.075 55.4959 18.075C57.5709 18.075 59.1459 16.525 59.1459 14.55V1.8L60.5459 0.499999H56.5959ZM68.801 1.8V9.825L63.776 0.499999H60.126L61.826 3.2V16.7L60.376 18H64.426L62.976 16.7V4.8L69.951 18.075V1.8L71.401 0.499999H67.351L68.801 1.8ZM75.5621 17.15V1.35L76.5871 0.499999H71.7371L72.7621 1.35V17.15L71.7371 18H76.5871L75.5621 17.15ZM87.2609 0.249999C87.0109 0.65 86.5859 0.974999 86.0609 0.974999C85.2859 0.974999 84.6359 0.249999 83.4359 0.249999C79.9609 0.249999 77.1859 4.075 77.1859 9.35C77.1859 14.725 79.6109 18.25 83.0109 18.25C85.5109 18.25 87.2859 16.175 87.7109 12.95L87.5359 12.9C86.7859 15.775 85.5109 16.675 84.0609 16.675C81.8609 16.675 80.3609 13.825 80.3609 8.95C80.3609 4.3 81.3859 0.824999 83.6859 0.824999C85.3109 0.824999 86.6609 3.4 87.3859 6.3H87.4609L87.2609 0.249999ZM91.607 5.225L92.832 13.075H90.457L91.607 5.225ZM90.882 0.499999L91.132 1.35L88.707 17.15L87.757 18H90.782L89.832 17.15L90.282 14.225H93.007L93.457 17.15L92.407 18H97.307L96.282 17.15L93.682 0.499999H90.882ZM96.2146 4.15L97.3396 1.65H98.9396V17.15L98.0146 18H102.69L101.74 17.15V1.65H103.34L104.465 4.15V0.499999H96.2146V4.15ZM108.793 17.15V1.35L109.818 0.499999H104.968L105.993 1.35V17.15L104.968 18H109.818L108.793 17.15ZM122.716 9.25C122.716 4 119.966 0.249999 116.566 0.249999C113.141 0.249999 110.416 4 110.416 9.25C110.416 14.5 113.141 18.25 116.566 18.25C119.966 18.25 122.716 14.5 122.716 9.25ZM119.466 9.25C119.466 14.175 118.716 17.7 116.566 17.7C114.391 17.7 113.666 14.175 113.666 9.25C113.666 4.325 114.391 0.799999 116.566 0.799999C118.716 0.799999 119.466 4.325 119.466 9.25ZM131.617 1.8V9.825L126.592 0.499999H122.942L124.642 3.2V16.7L123.192 18H127.242L125.792 16.7V4.8L132.767 18.075V1.8L134.217 0.499999H130.167L131.617 1.8ZM141.453 5.225L142.678 13.075H140.303L141.453 5.225ZM140.728 0.499999L140.978 1.35L138.553 17.15L137.603 18H140.628L139.678 17.15L140.128 14.225H142.853L143.303 17.15L142.253 18H147.153L146.128 17.15L143.528 0.499999H140.728ZM151.097 13.4C153.497 13.125 155.522 10.35 155.522 6.975C155.522 3.375 153.297 0.499999 150.722 0.499999H146.872L147.922 1.3V17.15L146.997 18H151.647L150.722 17.15V14.25C152.947 18.625 155.372 18.075 155.372 18.075V14.025C153.822 15.05 152.272 14.4 151.097 13.4ZM150.722 1.25C151.822 1.25 152.697 3.8 152.697 6.975C152.697 10.125 151.822 12.675 150.722 12.675V1.25ZM155.857 4.15L156.982 1.65H158.582V17.15L157.657 18H162.332L161.382 17.15V1.65H162.982L164.107 4.15V0.499999H155.857V4.15ZM168.688 11.025C170.412 12.35 171.463 13.05 171.463 14.6C171.463 16.05 170.563 16.875 169.463 16.875C167.538 16.875 165.563 14.35 164.363 11.725V18.075L165.413 17.15C166.588 17.825 167.838 18.075 168.938 18.075C171.238 18.075 173.413 16.425 173.413 13.325C173.413 10.2 171.763 8.9 169.963 7.45C168.238 6.075 166.338 4.95 166.338 3.45C166.338 2.15 167.163 1.35 168.313 1.35C169.688 1.35 170.563 2 172.713 6.125V0.425L171.688 1.05C170.963 0.775 169.963 0.425 168.913 0.425C166.188 0.425 164.363 2.3 164.363 5.125C164.363 8.025 167.263 9.975 168.688 11.025Z" fill="#1D1D1B"/>
</svg>
