<svg width="100" height="19" viewBox="0 0 100 19" fill="none" xmlns="http://www.w3.org/2000/svg">
<path d="M2.525 5.15L6.5 18.1L9.8 5.625V17.15L8.775 18H13.65L12.6 17.15V1.3L13.7 0.499999H9.95L7.25 10.325L4.075 0.499999H0.375L1.375 1.3V17.15L0.425 18H3.475L2.525 17.15V5.15ZM16.9254 5.225L18.1504 13.075H15.7754L16.9254 5.225ZM16.2004 0.499999L16.4504 1.35L14.0254 17.15L13.0754 18H16.1004L15.1504 17.15L15.6004 14.225H18.3254L18.7754 17.15L17.7254 18H22.6254L21.6004 17.15L19.0004 0.499999H16.2004ZM30.6945 1.8V9.825L25.6695 0.499999H22.0195L23.7195 3.2V16.7L22.2695 18H26.3195L24.8695 16.7V4.8L31.8445 18.075V1.8L33.2945 0.499999H29.2445L30.6945 1.8ZM45.8307 9.25C45.8307 4 43.0807 0.249999 39.6807 0.249999C36.2557 0.249999 33.5307 4 33.5307 9.25C33.5307 14.5 36.2557 18.25 39.6807 18.25C43.0807 18.25 45.8307 14.5 45.8307 9.25ZM42.5807 9.25C42.5807 14.175 41.8307 17.7 39.6807 17.7C37.5057 17.7 36.7807 14.175 36.7807 9.25C36.7807 4.325 37.5057 0.799999 39.6807 0.799999C41.8307 0.799999 42.5807 4.325 42.5807 9.25ZM46.1316 1.35V17.15L45.1316 18H51.7066V14.35L50.5816 16.85H48.9316V9.625H49.5316L50.5566 11.925V6.125L49.5066 8.475H48.9316V1.65H50.5816L51.7066 4.15V0.499999H45.1316L46.1316 1.35ZM56.043 1.35L57.143 0.499999H52.243L53.243 1.35V17.15L52.243 18H58.818V14.35L57.693 16.85H56.043V1.35ZM62.4869 5.225L63.7119 13.075H61.3369L62.4869 5.225ZM61.7619 0.499999L62.0119 1.35L59.5869 17.15L58.6369 18H61.6619L60.7119 17.15L61.1619 14.225H63.8869L64.3369 17.15L63.2869 18H68.1869L67.1619 17.15L64.5619 0.499999H61.7619ZM75.7418 17.15V1.35L76.7668 0.499999H71.9168L72.9418 1.35V17.15L71.9168 18H76.7668L75.7418 17.15ZM81.2656 1.35L82.3656 0.499999H77.4656L78.4656 1.35V17.15L77.4656 18H84.0406V14.35L82.9156 16.85H81.2656V1.35ZM88.0846 17.15V1.35L89.1096 0.499999H84.2596L85.2846 1.35V17.15L84.2596 18H89.1096L88.0846 17.15ZM99.0584 0.249999C98.8834 0.624999 98.4084 1 97.8834 1C97.1334 1 96.5334 0.249999 95.4584 0.249999C92.2834 0.249999 89.7834 4.125 89.7834 9.225C89.7834 14.7 92.0084 18.25 95.1834 18.25C97.5084 18.25 99.1084 16.2 99.5084 13L99.3584 12.95C98.5834 16.025 97.3334 17 95.8334 17C93.6834 17 92.2084 14.1 92.2084 9.2C92.2084 4.35 93.2584 0.824999 95.6834 0.824999C97.2334 0.824999 98.6334 3.375 99.2084 6.225H99.2834L99.0584 0.249999Z" fill="#1D1D1B"/>
</svg>
