<svg width="469" height="130" viewBox="0 0 469 130" fill="none" xmlns="http://www.w3.org/2000/svg">
<rect y="6" width="469" height="108" fill="#1D1D1B"/>
<path d="M48.4528 49.394C48.4528 33.9572 38.9532 21.435 27.7264 21.435H10.0226L15.2042 25.1053V93.3297L10.8862 97H32.5842L27.2946 93.3297V77.2451C38.4135 77.2451 48.4528 64.8309 48.4528 49.394ZM27.2946 74.0066V24.6735C32.4762 24.6735 36.2545 35.6844 36.2545 49.394C36.2545 62.9957 32.4762 74.0066 27.2946 74.0066ZM73.6347 21.435L79.6799 27.0484V81.7791C79.6799 86.6368 76.3334 89.1196 72.4472 89.1196C68.4531 89.1196 65.2146 85.8811 65.2146 81.887V25.1053L69.3167 21.435H49.0221L53.1242 25.1053V82.2108C53.1242 90.6309 60.1409 97.3238 68.8849 97.3238C77.8447 97.3238 84.6456 90.6309 84.6456 82.1029V27.0484L90.6908 21.435H73.6347ZM112.702 53.9279C119.502 51.553 125.656 45.2919 125.656 37.9513C125.656 28.7756 116.696 21.435 107.088 21.435H90.5719L94.9978 25.1053V93.3297L90.5719 97H106.98C120.69 97 130.297 87.0686 130.297 75.1941C130.297 64.9388 122.633 56.4108 112.702 53.9279ZM107.088 55.979C112.378 56.087 117.775 64.3991 117.775 75.0861C117.775 85.7732 112.378 93.7615 107.088 93.7615V55.979ZM107.088 24.6735C111.082 24.6735 114.321 30.071 114.321 38.1672C114.321 46.3715 111.082 52.7405 107.088 52.7405V24.6735ZM147.255 25.1053L152.005 21.435H130.846L135.164 25.1053V93.3297L130.846 97H159.237V81.2393L154.38 92.0343H147.255V25.1053ZM175.62 93.3297V25.1053L180.046 21.435H159.103L163.529 25.1053V93.3297L159.103 97H180.046L175.62 93.3297ZM225.056 20.3555C223.976 22.0827 222.141 23.486 219.874 23.486C216.528 23.486 213.721 20.3555 208.539 20.3555C193.534 20.3555 181.552 36.8718 181.552 59.6493C181.552 82.8585 192.023 98.0795 206.704 98.0795C217.499 98.0795 225.164 89.1196 226.999 75.1941L226.243 74.9782C223.005 87.3925 217.499 91.2786 211.238 91.2786C201.738 91.2786 195.261 78.9723 195.261 57.9221C195.261 37.8434 199.687 22.8383 209.619 22.8383C216.636 22.8383 222.465 33.9572 225.595 46.4794H225.919L225.056 20.3555ZM242.743 41.8375L248.032 75.7338H237.777L242.743 41.8375ZM239.612 21.435L240.692 25.1053L230.22 93.3297L226.118 97H239.18L235.078 93.3297L237.021 80.6995H248.788L250.731 93.3297L246.197 97H267.355L262.929 93.3297L251.702 21.435H239.612ZM261.559 37.1957L266.416 26.4007H273.325V93.3297L269.331 97H289.518L285.416 93.3297V26.4007H292.324L297.182 37.1957V21.435H261.559V37.1957ZM314.791 93.3297V25.1053L319.217 21.435H298.274L302.7 25.1053V93.3297L298.274 97H319.217L314.791 93.3297ZM373.834 59.2175C373.834 36.548 361.96 20.3555 347.279 20.3555C332.489 20.3555 320.723 36.548 320.723 59.2175C320.723 81.887 332.489 98.0795 347.279 98.0795C361.96 98.0795 373.834 81.887 373.834 59.2175ZM359.801 59.2175C359.801 80.4836 356.562 95.7046 347.279 95.7046C337.887 95.7046 334.756 80.4836 334.756 59.2175C334.756 37.9513 337.887 22.7304 347.279 22.7304C356.562 22.7304 359.801 37.9513 359.801 59.2175ZM407.951 27.0484V61.7003L386.253 21.435H370.492L377.833 33.0936V91.3866L371.572 97H389.06L382.798 91.3866V40.0024L412.916 97.3238V27.0484L419.178 21.435H401.69L407.951 27.0484ZM437.577 66.8819C445.026 72.6033 449.56 75.6259 449.56 82.3188C449.56 88.5799 445.673 92.1422 440.924 92.1422C432.611 92.1422 424.083 81.2393 418.902 69.9045V97.3238L423.436 93.3297C428.509 96.2443 433.907 97.3238 438.657 97.3238C448.588 97.3238 457.98 90.1992 457.98 76.8133C457.98 63.3196 450.855 57.7062 443.083 51.4451C435.634 45.5078 427.43 40.6501 427.43 34.1731C427.43 28.5597 430.992 25.1053 435.958 25.1053C441.895 25.1053 445.673 27.912 454.957 45.7237V21.1112L450.531 23.8099C447.401 22.6225 443.083 21.1112 438.549 21.1112C426.782 21.1112 418.902 29.2074 418.902 41.4057C418.902 53.9279 431.424 62.348 437.577 66.8819Z" fill="#CDC6BE"/>
</svg>
