<svg width="270" height="130" viewBox="0 0 270 130" fill="none" xmlns="http://www.w3.org/2000/svg">
<rect y="6" width="270" height="110" fill="#1D1D1B"/>
<path d="M24.9197 42.8375L30.2092 76.7338H19.954L24.9197 42.8375ZM21.7892 22.435L22.8686 26.1053L12.3975 94.3297L8.2954 98H21.3573L17.2553 94.3297L19.1984 81.6995H30.9649L32.908 94.3297L28.3741 98H49.5323L45.1064 94.3297L33.8796 22.435H21.7892ZM97.4149 28.0484L90.2902 81.5916L82.8416 26.1053L87.2676 22.435H66.1094L70.6433 26.1053L71.8307 35.1731L65.6776 81.5916L58.1211 26.1053L62.655 22.435H41.4968L45.9227 26.1053L55.6382 98H68.4843L74.3136 53.6325L80.2508 98H93.2048L102.381 28.0484L109.073 22.435H90.9379L97.4149 28.0484ZM117.487 42.8375L122.776 76.7338H112.521L117.487 42.8375ZM114.356 22.435L115.436 26.1053L104.965 94.3297L100.863 98H113.924L109.822 94.3297L111.765 81.6995H123.532L125.475 94.3297L120.941 98H142.099L137.673 94.3297L126.447 22.435H114.356ZM158.051 78.1372C168.414 76.9497 177.158 64.9673 177.158 50.394C177.158 34.8492 167.55 22.435 156.431 22.435H139.807L144.341 25.8894V94.3297L140.347 98H160.426L156.431 94.3297V81.8075C166.039 100.699 176.51 98.3238 176.51 98.3238V80.8359C169.817 85.2619 163.124 82.4552 158.051 78.1372ZM156.431 25.6735C161.181 25.6735 164.96 36.6844 164.96 50.394C164.96 63.9957 161.181 75.0066 156.431 75.0066V25.6735ZM194.066 25.6735C199.895 27.5086 204.537 42.8375 204.537 60.3255C204.537 77.5974 199.895 92.9263 194.066 94.7615V25.6735ZM177.657 22.435L181.975 26.1053V94.3297L177.657 98H194.066C208.531 98 216.627 81.0518 216.627 60.7572C216.627 40.4626 208.531 22.435 194.066 22.435H177.657ZM236.908 67.8819C244.357 73.6033 248.891 76.6259 248.891 83.3188C248.891 89.5799 245.004 93.1422 240.255 93.1422C231.942 93.1422 223.414 82.2393 218.233 70.9045V98.3238L222.767 94.3297C227.84 97.2443 233.238 98.3238 237.988 98.3238C247.919 98.3238 257.311 91.1992 257.311 77.8133C257.311 64.3196 250.186 58.7062 242.414 52.4451C234.965 46.5078 226.761 41.6501 226.761 35.1731C226.761 29.5597 230.323 26.1053 235.289 26.1053C241.226 26.1053 245.004 28.912 254.288 46.7237V22.1112L249.862 24.8099C246.732 23.6225 242.414 22.1112 237.88 22.1112C226.113 22.1112 218.233 30.2074 218.233 42.4057C218.233 54.9279 230.755 63.348 236.908 67.8819Z" fill="#CDC6BE"/>
</svg>
