<svg width="270" height="130" viewBox="0 0 270 130" fill="none" xmlns="http://www.w3.org/2000/svg">
<rect y="6" width="270" height="108" fill="#1D1D1B"/>
<path d="M53.0947 20.3555C52.0152 22.0827 50.18 23.486 47.913 23.486C44.5666 23.486 41.7599 20.3555 36.5783 20.3555C21.5733 20.3555 9.5908 36.8718 9.5908 59.6493C9.5908 82.8585 20.062 98.0795 34.7431 98.0795C45.5382 98.0795 53.2026 89.1196 55.0378 75.1941L54.2821 74.9782C51.0436 87.3925 45.5382 91.2786 39.2771 91.2786C29.7775 91.2786 23.3005 78.9723 23.3005 57.9221C23.3005 37.8434 27.7264 22.8383 37.6578 22.8383C44.6745 22.8383 50.5039 33.9572 53.6344 46.4794H53.9583L53.0947 20.3555ZM73.0485 77.1372C83.4117 75.9497 92.1557 63.9673 92.1557 49.394C92.1557 33.8492 82.5481 21.435 71.4293 21.435H54.805L59.3389 24.8894V93.3297L55.3447 97H75.4234L71.4293 93.3297V80.8075C81.0368 99.6987 91.508 97.3238 91.508 97.3238V79.8359C84.8151 84.2619 78.1222 81.4552 73.0485 77.1372ZM71.4293 24.6735C76.1791 24.6735 79.9573 35.6844 79.9573 49.394C79.9573 62.9957 76.1791 74.0066 71.4293 74.0066V24.6735ZM96.8422 25.1053V93.3297L92.5242 97H120.915V81.2393L116.057 92.0343H108.933V60.8368H111.523L115.949 70.7681V45.7237L111.415 55.871H108.933V26.4007H116.057L120.915 37.1957V21.435H92.5242L96.8422 25.1053ZM138.324 24.6735C144.153 26.5086 148.795 41.8375 148.795 59.3255C148.795 76.5974 144.153 91.9263 138.324 93.7615V24.6735ZM121.915 21.435L126.233 25.1053V93.3297L121.915 97H138.324C152.789 97 160.885 80.0518 160.885 59.7572C160.885 39.4626 152.789 21.435 138.324 21.435H121.915ZM176.256 93.3297V25.1053L180.682 21.435H159.74L164.166 25.1053V93.3297L159.74 97H180.682L176.256 93.3297ZM180.461 37.1957L185.319 26.4007H192.228V93.3297L188.234 97H208.42L204.318 93.3297V26.4007H211.227L216.085 37.1957V21.435H180.461V37.1957ZM233.703 66.8819C241.152 72.6033 245.686 75.6259 245.686 82.3188C245.686 88.5799 241.8 92.1422 237.05 92.1422C228.738 92.1422 220.21 81.2393 215.028 69.9045V97.3238L219.562 93.3297C224.636 96.2443 230.033 97.3238 234.783 97.3238C244.714 97.3238 254.106 90.1992 254.106 76.8133C254.106 63.3196 246.981 57.7062 239.209 51.4451C231.76 45.5078 223.556 40.6501 223.556 34.1731C223.556 28.5597 227.118 25.1053 232.084 25.1053C238.021 25.1053 241.8 27.912 251.083 45.7237V21.1112L246.657 23.8099C243.527 22.6225 239.209 21.1112 234.675 21.1112C222.908 21.1112 215.028 29.2074 215.028 41.4057C215.028 53.9279 227.55 62.348 233.703 66.8819Z" fill="#CDC6BE"/>
</svg>
