<svg width="96" height="19" viewBox="0 0 96 19" fill="none" xmlns="http://www.w3.org/2000/svg">
<path d="M10.9742 17.15L6.84922 5.6L9.04922 1.8L10.6242 0.499999H6.47422L7.92422 1.8L3.97422 8.65V1.35L4.99922 0.499999H0.149219L1.17422 1.35V17.15L0.149219 18H5.04922L3.97422 17.15V10.55L5.02422 8.75L8.12422 17.15L7.09922 18H11.9992L10.9742 17.15ZM20.4953 0.499999H16.1953L17.7453 1.8L16.1203 8.8L14.3453 1.35L15.4203 0.499999H10.4703L11.4953 1.35L13.8453 11.475V17.15L12.8203 18H17.7453L16.6453 17.15V11.475L18.9203 1.8L20.4953 0.499999ZM24.5439 1.35L25.6439 0.499999H20.7439L21.7439 1.35V17.15L20.7439 18H27.3189V14.35L26.1939 16.85H24.5439V1.35ZM28.5379 1.35V17.15L27.5379 18H34.1129V14.35L32.9879 16.85H31.3379V9.625H31.9379L32.9629 11.925V6.125L31.9129 8.475H31.3379V1.65H32.9879L34.1129 4.15V0.499999H27.5379L28.5379 1.35ZM48.9234 17.15L44.7984 5.6L46.9984 1.8L48.5734 0.499999H44.4234L45.8734 1.8L41.9234 8.65V1.35L42.9484 0.499999H38.0984L39.1234 1.35V17.15L38.0984 18H42.9984L41.9234 17.15V10.55L42.9734 8.75L46.0734 17.15L45.0484 18H49.9484L48.9234 17.15ZM60.7926 9.25C60.7926 4 58.0426 0.249999 54.6426 0.249999C51.2176 0.249999 48.4926 4 48.4926 9.25C48.4926 14.5 51.2176 18.25 54.6426 18.25C58.0426 18.25 60.7926 14.5 60.7926 9.25ZM57.5426 9.25C57.5426 14.175 56.7926 17.7 54.6426 17.7C52.4676 17.7 51.7426 14.175 51.7426 9.25C51.7426 4.325 52.4676 0.799999 54.6426 0.799999C56.7926 0.799999 57.5426 4.325 57.5426 9.25ZM65.5186 11.025C67.2436 12.35 68.2936 13.05 68.2936 14.6C68.2936 16.05 67.3936 16.875 66.2936 16.875C64.3686 16.875 62.3936 14.35 61.1936 11.725V18.075L62.2436 17.15C63.4186 17.825 64.6686 18.075 65.7686 18.075C68.0686 18.075 70.2436 16.425 70.2436 13.325C70.2436 10.2 68.5936 8.9 66.7936 7.45C65.0686 6.075 63.1686 4.95 63.1686 3.45C63.1686 2.15 63.9936 1.35 65.1436 1.35C66.5186 1.35 67.3936 2 69.5436 6.125V0.425L68.5186 1.05C67.7936 0.775 66.7936 0.425 65.7436 0.425C63.0186 0.425 61.1936 2.3 61.1936 5.125C61.1936 8.025 64.0936 9.975 65.5186 11.025ZM74.0045 5.225L75.2295 13.075H72.8545L74.0045 5.225ZM73.2795 0.499999L73.5295 1.35L71.1045 17.15L70.1545 18H73.1795L72.2295 17.15L72.6795 14.225H75.4045L75.8545 17.15L74.8045 18H79.7045L78.6795 17.15L76.0795 0.499999H73.2795ZM90.8102 17.15L86.6852 5.6L88.8852 1.8L90.4602 0.499999H86.3102L87.7602 1.8L83.8102 8.65V1.35L84.8352 0.499999H79.9852L81.0102 1.35V17.15L79.9852 18H84.8852L83.8102 17.15V10.55L84.8602 8.75L87.9602 17.15L86.9352 18H91.8352L90.8102 17.15ZM94.8277 17.15V1.35L95.8527 0.499999H91.0027L92.0277 1.35V17.15L91.0027 18H95.8527L94.8277 17.15Z" fill="#1D1D1B"/>
</svg>
