<svg width="134" height="110" viewBox="0 0 134 110" fill="none" xmlns="http://www.w3.org/2000/svg">
<rect width="134" height="110" fill="#1D1D1B"/>
<path d="M46.0778 22.0484V56.7003L24.3798 16.435H8.61914L15.9597 28.0936V86.3866L9.69864 92H27.1865L20.9254 86.3866V35.0024L51.0435 92.3239V22.0484L57.3046 16.435H39.8167L46.0778 22.0484Z" fill="#CDC6BE"/>
<path d="M56.7303 16.435L61.0483 20.1053V88.3297L56.6223 92H77.7805L73.1387 88.3297V55.8368H75.7295L80.1554 65.7682V40.7237L75.5136 50.871H73.1387V21.4007H80.1554L85.1211 32.1957V16.435H56.7303Z" fill="#CDC6BE"/>
<path d="M86.0134 32.1957L90.8711 21.4007H97.7799V88.3297L93.7858 92H113.972L109.87 88.3297V21.4007H116.779L121.637 32.1957V16.435H86.0134V32.1957Z" fill="#CDC6BE"/>
</svg>
