<svg width="120" height="19" viewBox="0 0 120 19" fill="none" xmlns="http://www.w3.org/2000/svg">
<path d="M4.875 11.025C6.6 12.35 7.65 13.05 7.65 14.6C7.65 16.05 6.75 16.875 5.65 16.875C3.725 16.875 1.75 14.35 0.55 11.725V18.075L1.6 17.15C2.775 17.825 4.025 18.075 5.125 18.075C7.425 18.075 9.6 16.425 9.6 13.325C9.6 10.2 7.95 8.9 6.15 7.45C4.425 6.075 2.525 4.95 2.525 3.45C2.525 2.15 3.35 1.35 4.5 1.35C5.875 1.35 6.75 2 8.9 6.125V0.425L7.875 1.05C7.15 0.775 6.15 0.425 5.1 0.425C2.375 0.425 0.55 2.3 0.55 5.125C0.55 8.025 3.45 9.975 4.875 11.025ZM13.3609 5.225L14.5859 13.075H12.2109L13.3609 5.225ZM12.6359 0.499999L12.8859 1.35L10.4609 17.15L9.51094 18H12.5359L11.5859 17.15L12.0359 14.225H14.7609L15.2109 17.15L14.1609 18H19.0609L18.0359 17.15L15.4359 0.499999H12.6359ZM30.4732 1.8L28.8232 14.2L27.0982 1.35L28.1232 0.499999H23.2232L24.2732 1.35L24.5482 3.45L23.1232 14.2L21.3732 1.35L22.4232 0.499999H17.5232L18.5482 1.35L20.7982 18H23.7732L25.1232 7.725L26.4982 18H29.4982L31.6232 1.8L33.1732 0.499999H28.9732L30.4732 1.8ZM42.9348 0.499999H38.6348L40.1848 1.8L38.5598 8.8L36.7848 1.35L37.8598 0.499999H32.9098L33.9348 1.35L36.2848 11.475V17.15L35.2598 18H40.1848L39.0848 17.15V11.475L41.3598 1.8L42.9348 0.499999ZM43.7684 1.35V17.15L42.7684 18H49.3434V14.35L48.2184 16.85H46.5684V9.625H47.1684L48.1934 11.925V6.125L47.1434 8.475H46.5684V1.65H48.2184L49.3434 4.15V0.499999H42.7684L43.7684 1.35ZM54.1047 13.4C56.5047 13.125 58.5297 10.35 58.5297 6.975C58.5297 3.375 56.3047 0.499999 53.7297 0.499999H49.8797L50.9297 1.3V17.15L50.0047 18H54.6547L53.7297 17.15V14.25C55.9547 18.625 58.3797 18.075 58.3797 18.075V14.025C56.8297 15.05 55.2797 14.4 54.1047 13.4ZM53.7297 1.25C54.8297 1.25 55.7047 3.8 55.7047 6.975C55.7047 10.125 54.8297 12.675 53.7297 12.675V1.25ZM66.0143 5.225L67.2393 13.075H64.8643L66.0143 5.225ZM65.2893 0.499999L65.5393 1.35L63.1143 17.15L62.1643 18H65.1893L64.2393 17.15L64.6893 14.225H67.4143L67.8643 17.15L66.8143 18H71.7143L70.6893 17.15L68.0893 0.499999H65.2893ZM75.5752 1.35L76.6752 0.499999H71.7752L72.7752 1.35V17.15L71.7752 18H78.3502V14.35L77.2252 16.85H75.5752V1.35ZM78.3191 4.15L79.4441 1.65H81.0441V17.15L80.1191 18H84.7941L83.8441 17.15V1.65H85.4441L86.5691 4.15V0.499999H78.3191V4.15ZM88.7994 5.15L92.7744 18.1L96.0744 5.625V17.15L95.0494 18H99.9244L98.8744 17.15V1.3L99.9744 0.499999H96.2244L93.5244 10.325L90.3494 0.499999H86.6494L87.6494 1.3V17.15L86.6994 18H89.7494L88.7994 17.15V5.15ZM103.2 5.225L104.425 13.075H102.05L103.2 5.225ZM102.475 0.499999L102.725 1.35L100.3 17.15L99.3498 18H102.375L101.425 17.15L101.875 14.225H104.6L105.05 17.15L104 18H108.9L107.875 17.15L105.275 0.499999H102.475ZM116.969 1.8V9.825L111.944 0.499999H108.294L109.994 3.2V16.7L108.544 18H112.594L111.144 16.7V4.8L118.119 18.075V1.8L119.569 0.499999H115.519L116.969 1.8Z" fill="#1D1D1B"/>
</svg>
