<svg width="375" height="106" viewBox="0 0 375 106" fill="none" xmlns="http://www.w3.org/2000/svg">
<rect width="375" height="106" fill="#1D1D1B"/>
<path d="M53.9429 16C52.9138 17.6466 51.1643 18.9844 49.0032 18.9844C45.8129 18.9844 43.1372 16 38.1975 16C23.8929 16 12.4697 31.7454 12.4697 53.4596C12.4697 75.5855 22.4521 90.096 36.448 90.096C46.7391 90.096 54.0458 81.5544 55.7953 68.2788L55.0749 68.073C51.9876 79.9078 46.7391 83.6126 40.7703 83.6126C31.7141 83.6126 25.5394 71.8807 25.5394 51.8131C25.5394 32.6716 29.7588 18.367 39.2266 18.367C45.9158 18.367 51.473 28.9668 54.4575 40.9045H54.7662L53.9429 16Z" fill="#CDC6BE"/>
<path d="M106.823 53.048C106.823 31.4367 95.5029 16 81.507 16C67.4082 16 56.1909 31.4367 56.1909 53.048C56.1909 74.6593 67.4082 90.096 81.507 90.096C95.5029 90.096 106.823 74.6593 106.823 53.048ZM93.4447 53.048C93.4447 73.3215 90.3574 87.832 81.507 87.832C72.5537 87.832 69.5693 73.3215 69.5693 53.048C69.5693 32.7745 72.5537 18.264 81.507 18.264C90.3574 18.264 93.4447 32.7745 93.4447 53.048Z" fill="#CDC6BE"/>
<path d="M123.396 70.1312C133.275 68.9992 141.611 57.5761 141.611 43.6831C141.611 28.8639 132.452 17.0291 121.852 17.0291H106.004L110.326 20.3223V85.5679L106.518 89.0669H125.66L121.852 85.5679V73.6302C131.011 91.6397 140.994 89.3756 140.994 89.3756V72.704C134.613 76.9234 128.233 74.2477 123.396 70.1312ZM121.852 20.1164C126.38 20.1164 129.982 30.6134 129.982 43.6831C129.982 56.6499 126.38 67.1468 121.852 67.1468V20.1164Z" fill="#CDC6BE"/>
<path d="M179.628 43.6831C179.628 28.9668 170.572 17.0291 159.869 17.0291H142.992L147.931 20.5281V85.5679L143.815 89.0669H164.5L159.457 85.5679V70.2342C170.057 70.2342 179.628 58.3994 179.628 43.6831ZM159.457 67.1468V20.1164C164.397 20.1164 167.999 30.6134 167.999 43.6831C167.999 56.6499 164.397 67.1468 159.457 67.1468Z" fill="#CDC6BE"/>
<path d="M232.258 53.048C232.258 31.4367 220.938 16 206.942 16C192.843 16 181.626 31.4367 181.626 53.048C181.626 74.6593 192.843 90.096 206.942 90.096C220.938 90.096 232.258 74.6593 232.258 53.048ZM218.88 53.048C218.88 73.3215 215.792 87.832 206.942 87.832C197.989 87.832 195.004 73.3215 195.004 53.048C195.004 32.7745 197.989 18.264 206.942 18.264C215.792 18.264 218.88 32.7745 218.88 53.048Z" fill="#CDC6BE"/>
<path d="M248.831 70.1312C258.71 68.9992 267.046 57.5761 267.046 43.6831C267.046 28.8639 257.887 17.0291 247.287 17.0291H231.439L235.761 20.3223V85.5679L231.953 89.0669H251.095L247.287 85.5679V73.6302C256.446 91.6397 266.429 89.3756 266.429 89.3756V72.704C260.048 76.9234 253.668 74.2477 248.831 70.1312ZM247.287 20.1164C251.815 20.1164 255.417 30.6134 255.417 43.6831C255.417 56.6499 251.815 67.1468 247.287 67.1468V20.1164Z" fill="#CDC6BE"/>
<path d="M282.628 36.4793L287.671 68.7934H277.894L282.628 36.4793ZM279.644 17.0291L280.673 20.5281L270.691 85.5679L266.78 89.0669H279.232L275.322 85.5679L277.174 73.5273H288.391L290.244 85.5679L285.921 89.0669H306.092L301.873 85.5679L291.17 17.0291H279.644Z" fill="#CDC6BE"/>
<path d="M300.566 32.0541L305.197 21.763H311.783V85.5679L307.976 89.0669H327.22L323.31 85.5679V21.763H329.896L334.527 32.0541V17.0291H300.566V32.0541Z" fill="#CDC6BE"/>
<path d="M336.971 20.5281V85.5679L332.854 89.0669H359.92V74.0419L355.289 84.333H348.497V54.5917H350.967L355.186 64.0595V40.1841L350.864 49.8578H348.497V21.763H355.289L359.92 32.0541V17.0291H332.854L336.971 20.5281Z" fill="#CDC6BE"/>
</svg>
