<svg width="1153" height="177" viewBox="0 0 1153 177" fill="none" xmlns="http://www.w3.org/2000/svg">
<path d="M37.7574 48.8034L49.644 125.861H26.337L37.7574 48.8034ZM30.7653 2.5686L33.3291 10.9749L9.32282 165.792L0 174.198H29.833L20.5102 165.792L24.9385 137.07H51.5086L55.9369 165.792L45.6818 174.198H93.6944L83.6723 165.792L58.0346 2.5686H30.7653ZM132.85 129.131C156.39 126.329 176.201 99.2414 176.201 66.0831C176.201 30.8232 154.526 2.5686 129.121 2.5686H91.3637L101.619 10.5079V166.025L92.7621 174.198H138.211L129.121 165.792V137.303C151.03 180.269 174.57 174.898 174.57 174.898V135.202C159.42 145.243 144.271 138.938 132.85 129.131ZM129.121 10.0409C139.842 10.0409 148.466 35.0264 148.466 66.0831C148.466 96.9063 139.842 121.892 129.121 121.892V10.0409V10.0409ZM241.927 5.83773C259.408 5.83773 273.858 31.0567 281.316 59.5449H282.015L279.918 0.233509C277.354 4.20317 273.392 7.23879 268.031 7.23879C260.34 7.23879 252.415 0.233509 239.83 0.233509C207.666 0.233509 178.765 36.1939 178.765 91.0686C178.765 140.806 201.839 177 233.071 177C250.085 177 263.603 166.959 268.031 151.781L286.91 177H287.376V122.359C287.376 106.247 288.308 99.2414 296 93.8707V93.4037H248.686V93.8707C258.941 99.7084 261.738 106.714 261.738 122.592V134.501C261.738 156.218 251.716 168.594 239.13 168.594C217.921 168.594 209.297 136.369 209.297 90.3681C209.064 38.996 220.485 5.83773 241.927 5.83773ZM414.633 88.2665C414.633 36.8945 387.596 0 354.5 0C320.938 0 294.368 36.8945 294.368 88.2665C294.368 139.639 320.938 176.533 354.5 176.533C387.596 176.767 414.633 139.872 414.633 88.2665ZM382.702 88.2665C382.702 136.603 375.244 171.162 354.267 171.162C333.058 171.162 325.833 136.603 325.833 88.2665C325.833 39.9301 332.825 5.37071 354.267 5.37071C375.477 5.60422 382.702 40.1636 382.702 88.2665ZM456.352 129.131C479.892 126.329 499.703 99.2414 499.703 66.0831C499.703 30.8232 478.028 2.5686 452.623 2.5686H414.866L425.121 10.5079V166.025L416.031 174.431H461.48L452.39 166.025V137.303C474.066 180.269 497.839 174.898 497.839 174.898V135.202C483.155 145.243 468.006 138.938 456.352 129.131ZM452.623 10.0409C463.344 10.0409 471.968 35.0264 471.968 66.0831C471.968 96.9063 463.344 121.892 452.623 121.892V10.0409ZM573.587 80.5607H507.395V91.7691H573.587V80.5607ZM619.035 165.792V92.0026H638.38V165.792L629.057 173.731L619.035 165.792ZM638.38 10.9749V80.7942H619.035V10.9749L628.824 2.80211L638.38 10.9749ZM665.649 10.9749L675.438 2.5686H581.744L591.533 10.9749V166.025L581.744 174.431H675.905L665.649 166.025V10.9749ZM711.331 48.8034L723.218 125.861H699.911L711.331 48.8034ZM704.106 2.5686L706.67 10.9749L682.897 166.025L673.574 174.431H703.174L693.851 166.025L698.279 137.303H724.849L729.278 166.025L719.023 174.431H767.035L757.013 166.025L731.608 2.5686H704.106ZM769.366 10.9749V166.025L759.577 174.431H823.904V138.471L812.95 162.989H796.635V92.0026H802.462L812.484 114.653V57.6768L802.229 80.7942H796.635V13.777H812.717L823.671 38.2955V2.5686H759.344L769.366 10.9749ZM865.624 129.131C889.164 126.329 908.975 99.2414 908.975 66.0831C908.975 30.8232 887.3 2.5686 861.895 2.5686H824.137L834.393 10.5079V166.025L825.303 174.431H870.752L861.662 166.025V137.303C883.337 180.269 907.111 174.898 907.111 174.898V135.202C892.194 145.243 877.045 138.938 865.624 129.131ZM861.895 10.0409C872.616 10.0409 881.24 35.0264 881.24 66.0831C881.24 96.9063 872.616 121.892 861.895 121.892V10.0409ZM919.463 10.9749V166.025L909.674 174.431H974.002V138.471L963.048 162.989H946.966V92.0026H952.792L962.814 114.653V57.6768L952.559 80.7942H946.966V13.777H963.048L974.002 38.2955V2.5686H909.674L919.463 10.9749ZM1029.71 2.5686L1043.46 15.4116V139.639C1043.46 150.613 1035.77 156.218 1027.14 156.218C1018.05 156.218 1010.83 148.745 1010.83 139.872V10.9749L1020.15 2.5686H974.235L983.558 10.9749V140.573C983.558 159.72 999.407 174.898 1019.22 174.898C1039.49 174.898 1054.88 159.72 1054.88 140.339V15.4116L1068.63 2.5686H1029.71ZM1106.62 105.78C1123.4 118.856 1133.89 125.628 1133.89 140.806C1133.89 155.05 1125.03 163.223 1114.31 163.223C1095.43 163.223 1076.09 138.471 1064.43 112.785V175.132L1074.69 166.025C1086.11 172.563 1098.46 175.132 1109.18 175.132C1131.79 175.132 1153 159.02 1153 128.43C1153 97.8404 1136.92 84.9974 1119.2 70.7533C1102.42 57.2098 1083.78 46.2348 1083.78 31.5237C1083.78 18.6807 1091.94 10.9749 1103.12 10.9749C1116.64 10.9749 1125.26 17.2797 1146.24 57.9103V1.86807L1136.22 7.93931C1129.23 5.1372 1119.44 1.86807 1108.95 1.86807C1082.38 1.86807 1064.43 20.3153 1064.43 47.8694C1064.2 76.3575 1092.63 95.5053 1106.62 105.78Z" fill="#1D1D1B"/>
</svg>
