<svg width="1010" height="258" viewBox="0 0 1010 258" fill="none" xmlns="http://www.w3.org/2000/svg">
<path d="M0.701172 55.02L17.0263 18.742H40.2442V243.666L26.8213 256H94.6612L80.8756 243.666V18.742H104.093L120.419 55.02V2.05415H0.701172V55.02Z" fill="#1D1D1B"/>
<path d="M174.187 243.666V134.469H202.846V243.666L189.061 255.275L174.187 243.666ZM202.846 14.3887V117.781H174.187V14.3887L188.698 2.41692L202.846 14.3887ZM243.478 14.3887L257.989 2.05415H119.044L133.555 14.3887V243.666L119.044 256H258.714L243.478 243.666V14.3887Z" fill="#1D1D1B"/>
<path d="M312.647 243.666V14.3887L327.521 2.05415H257.141L272.015 14.3887V243.666L257.141 256H327.521L312.647 243.666Z" fill="#1D1D1B"/>
<path d="M451.22 20.9187V137.371L378.301 2.05415H325.335L350.004 41.2344V237.136L328.963 256H387.734L366.692 237.136V64.4523L467.908 257.089V20.9187L488.949 2.05415H430.179L451.22 20.9187Z" fill="#1D1D1B"/>
<path d="M643.655 243.666L583.796 76.0613L615.721 20.9187L638.576 2.05415H578.355L599.396 20.9187L542.077 120.32V14.3887L556.951 2.05415H486.571L501.445 14.3887V243.666L486.571 256H557.676L542.077 243.666V147.892L557.313 121.772L602.298 243.666L587.424 256H658.529L643.655 243.666Z" fill="#1D1D1B"/>
<path d="M661.854 14.3887V243.666L647.342 256H742.754V203.034L726.428 239.312H702.485V134.469H711.192L726.066 167.845V83.6797L710.829 117.781H702.485V18.742H726.428L742.754 55.02V2.05415H647.342L661.854 14.3887Z" fill="#1D1D1B"/>
<path d="M804.591 189.249C839.417 185.258 868.803 144.989 868.803 96.0142C868.803 43.7739 836.515 2.05415 799.149 2.05415H743.281L758.517 13.6631V243.666L745.095 256H812.572L799.149 243.666V201.583C831.436 265.07 866.626 257.089 866.626 257.089V198.318C844.134 213.192 821.641 203.76 804.591 189.249ZM799.149 12.9376C815.111 12.9376 827.808 49.9411 827.808 96.0142C827.808 141.724 815.111 178.728 799.149 178.728V12.9376Z" fill="#1D1D1B"/>
<path d="M940.899 154.785C965.931 174.012 981.168 184.17 981.168 206.662C981.168 227.703 968.108 239.675 952.146 239.675C924.212 239.675 895.552 203.034 878.138 164.942V257.089L893.375 243.666C910.426 253.461 928.565 257.089 944.527 257.089C977.903 257.089 1009.46 233.145 1009.46 188.16C1009.46 142.813 985.521 123.948 959.401 102.907C934.369 82.9541 906.798 66.629 906.798 44.8622C906.798 25.9976 918.77 14.3887 935.458 14.3887C955.411 14.3887 968.108 23.8209 999.307 83.6797V0.96582L984.433 10.0353C973.912 6.04474 959.401 0.96582 944.164 0.96582C904.621 0.96582 878.138 28.1743 878.138 69.1684C878.138 111.251 920.221 139.548 940.899 154.785Z" fill="#1D1D1B"/>
</svg>
